<svg xmlns="http://www.w3.org/2000/svg" style="display: none;">


<!-- REPORTLIST -->


<symbol id="Образование" viewBox="0 0 56 56">
    <path
      d="M54.9145 11.2545C54.9109 11.2545 54.9072 11.2545 54.9037 11.2545H51.2239V9.99535C51.2437 9.49698 50.9213 9.04908 50.4423 8.90987C47.8877 8.2404 45.257 7.90471 42.616 7.91123C38.2741 7.91123 32.3582 8.88816 27.9837 13.3386C23.6418 8.84474 17.6825 7.91123 13.3514 7.91123C10.7104 7.90471 8.07978 8.2404 5.5251 8.90987C5.04613 9.04908 4.72374 9.49698 4.74355 9.99535V11.2437H1.08548C0.486024 11.2437 0 11.7297 0 12.3291V46.9994C0 47.5989 0.486024 48.0849 1.08548 48.0849C1.27191 48.0844 1.45509 48.0358 1.61737 47.9438C1.72592 47.8895 12.5807 41.9519 27.7341 45.7728H27.8969H27.9946C28.0811 45.7833 28.1685 45.7833 28.2551 45.7728C43.4518 41.9194 54.3066 47.8461 54.3718 47.9438C54.7076 48.1377 55.1214 48.1377 55.4573 47.9438C55.791 47.7511 55.9977 47.3958 56 47.0103V12.34C56 11.7405 55.5141 11.2545 54.9145 11.2545ZM2.17096 45.2735V13.4255H4.76526V40.6494C4.75848 41.2488 5.23894 41.7403 5.8384 41.7471C5.89701 41.7477 5.95563 41.7437 6.01357 41.7348C8.25916 41.392 10.5263 41.2106 12.7978 41.1921C15.9444 41.1376 19.0777 41.6108 22.0678 42.5924C15.3155 41.7758 8.46635 42.6987 2.17096 45.2735ZM12.7978 39.032C10.8235 39.0365 8.85142 39.1633 6.89281 39.4119V10.8529C9.00624 10.3821 11.1644 10.1418 13.3297 10.1365C17.3894 10.1365 22.9905 11.07 26.8765 15.4553L26.9091 42.4947C24.6513 41.0184 20.2442 39.032 12.7978 39.032ZM29.0801 15.4553C32.9661 11.1134 38.5672 10.1365 42.6269 10.1365C44.792 10.1428 46.9502 10.383 49.0638 10.8529V39.4119C47.1161 39.161 45.155 39.0305 43.1913 39.0211C35.7883 39.0211 31.3704 41.0076 29.0801 42.4838V15.4553ZM53.8182 45.2735C47.5094 42.6917 40.6445 41.7686 33.8779 42.5924C36.8821 41.6073 40.0304 41.1339 43.1913 41.1921C45.4771 41.2049 47.7589 41.3826 50.019 41.724C50.6117 41.8139 51.1651 41.4063 51.2551 40.8137C51.2639 40.7557 51.268 40.6971 51.2673 40.6385V13.4255H53.8616L53.8182 45.2735Z"
    />
</symbol>

<symbol id="Спорт, хобби" viewBox="0 0 56 56">
<path
      d="M54.2851 23.6511H50.9474C50.3288 23.6511 49.7836 23.9689 49.4649 24.4492C46.9134 24.1826 46.5733 23.7737 46.2977 23.4404C45.9226 22.9871 45.4778 22.6026 44.9754 22.2975L37.3059 17.6389C35.7439 14.0107 33.1312 11.7424 31.1924 10.4709C30.4375 9.97577 29.9867 9.13708 29.9867 8.22748C29.9867 7.69086 30.1448 7.17218 30.4439 6.72699L32.3511 3.88837C32.7313 3.32312 32.8625 2.64465 32.7211 1.97815C32.5797 1.31165 32.184 0.745117 31.6073 0.382385C31.2086 0.132446 30.7494 0 30.2794 0H21.2175C20.7471 0 20.2878 0.132446 19.8896 0.382385C19.3128 0.74469 18.9172 1.31122 18.7758 1.97815C18.6344 2.64465 18.7655 3.32312 19.1458 3.88837L21.053 6.72699C21.3521 7.17218 21.5102 7.69086 21.5102 8.22748C21.5102 9.13708 21.0594 9.97577 20.3045 10.4709C17.4312 12.3551 11.0106 17.9084 13.4382 28.7618C14.7921 34.8154 15.838 39.0819 16.4669 41.1348H2.94076C1.82522 41.1348 0.849813 41.9278 0.622091 43.0198L0.159811 45.239C0.0136925 45.9401 0.188863 46.6608 0.64089 47.2167C1.09249 47.7721 1.76241 48.0908 2.47848 48.0908H49.0184C49.7349 48.0908 50.4044 47.7721 50.8564 47.2167C51.308 46.6608 51.4832 45.9401 51.3371 45.239L50.8748 43.0198C50.6471 41.9278 49.6717 41.1348 48.5561 41.1348H35.0299C35.2179 40.5209 35.4448 39.704 35.7075 38.6923H36.5979C39.2105 38.6923 41.7996 38.3022 44.2956 37.5327L49.3939 36.8901C49.6986 37.4344 50.2801 37.804 50.9474 37.804H54.2851C55.2656 37.804 56.0637 37.0063 56.0637 36.0254V25.4301C56.0637 24.4492 55.2656 23.6511 54.2851 23.6511ZM20.3809 2.31866C20.4292 2.09009 20.5647 1.89612 20.7625 1.77179C20.8992 1.68591 21.0564 1.64062 21.2175 1.64062H30.2794C30.4405 1.64062 30.5981 1.68591 30.7344 1.77179C30.9322 1.89612 31.0676 2.09009 31.1164 2.31866C31.1646 2.54681 31.1193 2.77966 30.9895 2.97321L30.0457 4.37799H21.4512L20.5074 2.97321C20.3771 2.77966 20.3322 2.54681 20.3809 2.31866ZM21.2038 11.8428C22.4232 11.0435 23.1512 9.69165 23.1512 8.22748C23.1512 7.44519 22.9401 6.68726 22.5428 6.01862H28.9541C28.5567 6.68726 28.3461 7.44519 28.3461 8.22748C28.3461 9.69165 29.0737 11.0435 30.2931 11.8428C30.7955 12.1722 31.3479 12.5756 31.9136 13.0605H19.588C20.1622 12.5674 20.7159 12.1628 21.2038 11.8428ZM49.2688 43.3548L49.731 45.5739C49.7926 45.8687 49.6648 46.0811 49.5832 46.1815C49.5016 46.2819 49.3196 46.4502 49.0184 46.4502H2.47848C2.17727 46.4502 1.99526 46.2819 1.91366 46.1815C1.83205 46.0811 1.70431 45.8687 1.76583 45.5739L2.22811 43.3548C2.29818 43.019 2.5981 42.7755 2.94076 42.7755H48.5557C48.8988 42.7755 49.1983 43.019 49.2688 43.3548ZM33.3081 41.1348H18.1887C17.8508 40.1278 16.9929 37.1362 15.0391 28.4033C14.2154 24.7209 14.4123 21.3871 15.6206 18.4698H18.6425C19.0958 18.4698 19.4628 18.1028 19.4628 17.6495C19.4628 17.1962 19.0958 16.8292 18.6425 16.8292H16.434C16.8972 16.0311 17.4124 15.324 17.9469 14.7011H33.5559C34.0917 15.3257 34.6057 16.0333 35.0662 16.8292H21.928C21.4747 16.8292 21.1077 17.1962 21.1077 17.6495C21.1077 18.1028 21.4747 18.4698 21.928 18.4698H32.7989C32.5899 18.9804 32.5472 19.5418 32.6809 20.0878C32.8488 20.7701 33.2722 21.3469 33.8721 21.7101L35.2824 22.5667H26.165C24.7171 22.5667 23.543 23.6805 23.4926 25.1024C23.4789 25.481 23.5447 25.8488 23.6823 26.188H22.841C22.1203 26.188 21.4482 26.4734 20.9475 26.9921C20.4476 27.5104 20.1857 28.1931 20.2118 28.9143C20.2515 30.041 20.997 30.9741 22.0254 31.3133C21.8626 31.6551 21.7716 32.037 21.7716 32.4404C21.7716 33.8909 22.9521 35.0714 24.4026 35.0714H25.6455C25.5207 35.3773 25.4519 35.7118 25.4519 36.0617C25.4519 37.5126 26.6324 38.6927 28.0829 38.6927H34.0118C33.667 39.9966 33.4453 40.7277 33.3081 41.1348ZM44.0192 35.9139C43.9709 35.9199 43.9239 35.9301 43.8778 35.9442C41.5185 36.6791 39.0691 37.0516 36.5979 37.0516H28.0829C27.5369 37.0516 27.0926 36.6073 27.0926 36.0613C27.0926 35.5153 27.5369 35.0709 28.0829 35.0709H33.4598C33.9127 35.0709 34.2801 34.7035 34.2801 34.2506C34.2801 33.7973 33.9127 33.4303 33.4598 33.4303H24.4026C23.8566 33.4303 23.4123 32.986 23.4123 32.4399C23.4123 31.8939 23.8566 31.4496 24.4026 31.4496H33.4598C33.9127 31.4496 34.2801 31.0826 34.2801 30.6293C34.2801 30.176 33.9127 29.809 33.4598 29.809H22.8842C22.333 29.809 21.8699 29.3813 21.8511 28.8553C21.8417 28.5836 21.94 28.326 22.128 28.1307C22.3168 27.9359 22.5697 27.8282 22.841 27.8282H33.4598C33.9127 27.8282 34.2801 27.4608 34.2801 27.0079C34.2801 26.5546 33.9127 26.1876 33.4598 26.1876H26.1218C25.8505 26.1876 25.5972 26.08 25.4088 25.8847C25.2208 25.6899 25.1225 25.4323 25.1319 25.1601C25.1507 24.6346 25.6143 24.2069 26.165 24.2069H37.4721C37.9382 24.2069 38.336 23.9053 38.462 23.4562C38.5876 23.0072 38.4043 22.5428 38.0057 22.301L34.7232 20.307C34.4967 20.1699 34.3378 19.9532 34.2746 19.696C34.2113 19.4393 34.2519 19.1731 34.3891 18.9471C34.6719 18.4797 35.2824 18.3301 35.7486 18.6121L44.1239 23.6993C44.4695 23.9091 44.7754 24.174 45.0335 24.4859C45.7042 25.2964 46.5656 25.7826 49.1684 26.0671V35.264L44.0192 35.9139ZM54.4231 36.0254C54.4231 36.1014 54.3611 36.1634 54.2851 36.1634H50.9474C50.8714 36.1634 50.809 36.1014 50.809 36.0254V25.4297C50.809 25.3536 50.8709 25.2917 50.9474 25.2917H54.2851C54.3611 25.2917 54.4231 25.3536 54.4231 25.4297V36.0254Z"
    />
<path
      d="M39.3344 53.3537L35.0619 49.9165C34.709 49.6324 34.1924 49.6888 33.9088 50.0417C33.6246 50.3946 33.6806 50.9111 34.0335 51.1948L37.9676 54.3594H13.5291L17.4713 51.1884C17.8242 50.9047 17.8802 50.3882 17.5961 50.0353C17.3124 49.6819 16.7958 49.6264 16.4429 49.9101L12.1624 53.3533C11.6638 53.7544 11.4792 54.4034 11.6915 55.0067C11.9039 55.61 12.455 56 13.0946 56H38.4021C39.0417 56 39.5924 55.6104 39.8052 55.0067C40.0175 54.4034 39.833 53.7544 39.3344 53.3537Z"
    />
</symbol>

<symbol id="Коммуналка" viewBox="0 0 56 56">
<path
      d="M53.6881 0H2.31193C1.52336 0 0.878174 0.645189 0.878174 1.43375C0.878174 2.22232 1.52336 2.86751 2.31193 2.86751H5.40644V54.5304C5.40644 55.0561 5.69319 55.546 6.15916 55.7969C6.62513 56.0478 7.18669 56.0239 7.62876 55.7252L13.8536 51.5793L20.1024 55.7371C20.5803 56.0597 21.2136 56.0597 21.6915 55.7371L27.9164 51.5912L34.1651 55.7491C34.6431 56.0717 35.2763 56.0717 35.7542 55.7491L41.9791 51.6032L48.2279 55.761C48.4668 55.9164 48.7416 56 49.0164 56C49.2434 56 49.4824 55.9403 49.6975 55.8327C50.1634 55.5818 50.4502 55.092 50.4502 54.5662L50.4263 2.90335H53.6881C54.4766 2.90335 55.1218 2.25816 55.1218 1.4696C55.1218 0.681033 54.4766 0 53.6881 0ZM47.5946 51.8541L42.7796 48.652C42.3017 48.3294 41.6684 48.3294 41.1905 48.652L34.9656 52.8099L28.7169 48.652C28.239 48.3294 27.6057 48.3294 27.1278 48.652L20.9029 52.798L14.6541 48.652C14.1762 48.3294 13.543 48.3294 13.0651 48.652L8.27395 51.8421V2.85556H47.5827L47.5946 51.8541Z"
    />
<path
      d="M14.8692 22.8924H29.8877C30.6763 22.8924 31.3215 22.2472 31.3215 21.4587C31.3215 20.6701 30.6763 20.0249 29.8877 20.0249H14.8692C14.0806 20.0249 13.4354 20.6701 13.4354 21.4587C13.4354 22.2472 14.0687 22.8924 14.8692 22.8924Z"
    />
<path
      d="M14.8692 27.8748H26.1241C26.9127 27.8748 27.5579 27.2296 27.5579 26.4411C27.5579 25.6525 26.9127 25.0073 26.1241 25.0073H14.8692C14.0806 25.0073 13.4354 25.6525 13.4354 26.4411C13.4354 27.2296 14.0687 27.8748 14.8692 27.8748Z"
    />
<path
      d="M37.3912 22.8924H41.1428C41.9314 22.8924 42.5766 22.2472 42.5766 21.4587C42.5766 20.6701 41.9314 20.0249 41.1428 20.0249H37.3912C36.6026 20.0249 35.9574 20.6701 35.9574 21.4587C35.9574 22.2472 36.5906 22.8924 37.3912 22.8924Z"
    />
<path
      d="M37.3912 27.8748H41.1428C41.9314 27.8748 42.5766 27.2296 42.5766 26.4411C42.5766 25.6525 41.9314 25.0073 41.1428 25.0073H37.3912C36.6026 25.0073 35.9574 25.6525 35.9574 26.4411C35.9574 27.2296 36.5906 27.8748 37.3912 27.8748Z"
    />
<path
      d="M14.8692 11.3865H29.8877C30.6763 11.3865 31.3215 10.7414 31.3215 9.9528C31.3215 9.16423 30.6763 8.51904 29.8877 8.51904H14.8692C14.0806 8.51904 13.4354 9.16423 13.4354 9.9528C13.4354 10.7414 14.0687 11.3865 14.8692 11.3865Z"
    />
<path
      d="M14.8692 16.3568H26.1241C26.9127 16.3568 27.5579 15.7116 27.5579 14.923C27.5579 14.1344 26.9127 13.4893 26.1241 13.4893H14.8692C14.0806 13.4893 13.4354 14.1344 13.4354 14.923C13.4354 15.7116 14.0687 16.3568 14.8692 16.3568Z"
    />
<path
      d="M37.3912 11.3865H41.1428C41.9314 11.3865 42.5766 10.7414 42.5766 9.9528C42.5766 9.16423 41.9314 8.51904 41.1428 8.51904H37.3912C36.6026 8.51904 35.9574 9.16423 35.9574 9.9528C35.9574 10.7414 36.5906 11.3865 37.3912 11.3865Z"
    />
<path
      d="M37.3912 16.3568H41.1428C41.9314 16.3568 42.5766 15.7116 42.5766 14.923C42.5766 14.1344 41.9314 13.4893 41.1428 13.4893H37.3912C36.6026 13.4893 35.9574 14.1344 35.9574 14.923C35.9574 15.7116 36.5906 16.3568 37.3912 16.3568Z"
    />
<path
      d="M14.8692 34.5413H29.8877C30.6763 34.5413 31.3215 33.8961 31.3215 33.1076C31.3215 32.319 30.6763 31.6738 29.8877 31.6738H14.8692C14.0806 31.6738 13.4354 32.319 13.4354 33.1076C13.4354 33.8961 14.0687 34.5413 14.8692 34.5413Z"
    />
<path
      d="M14.8692 39.5116H26.1241C26.9127 39.5116 27.5579 38.8664 27.5579 38.0778C27.5579 37.2892 26.9127 36.644 26.1241 36.644H14.8692C14.0806 36.644 13.4354 37.2892 13.4354 38.0778C13.4354 38.8664 14.0687 39.5116 14.8692 39.5116Z"
    />
<path
      d="M37.3912 34.5413H41.1428C41.9314 34.5413 42.5766 33.8961 42.5766 33.1076C42.5766 32.319 41.9314 31.6738 41.1428 31.6738H37.3912C36.6026 31.6738 35.9574 32.319 35.9574 33.1076C35.9574 33.8961 36.5906 34.5413 37.3912 34.5413Z"
    />
<path
      d="M37.3912 39.5116H41.1428C41.9314 39.5116 42.5766 38.8664 42.5766 38.0778C42.5766 37.2892 41.9314 36.644 41.1428 36.644H37.3912C36.6026 36.644 35.9574 37.2892 35.9574 38.0778C35.9574 38.8664 36.5906 39.5116 37.3912 39.5116Z"
    />
</symbol>

<symbol id="Техника" viewBox="0 0 56 56">
<path
      d="M37.9904 16.9692C37.3867 16.9692 36.8966 17.458 36.8966 18.0626C36.8966 18.6667 37.3867 19.1563 37.9904 19.1563C38.5953 19.1563 39.0841 18.6667 39.0841 18.0626C39.0841 17.458 38.5953 16.9692 37.9904 16.9692Z"
    />
<path
      d="M18.1174 36.8418C17.5125 36.8418 17.0237 37.3318 17.0237 37.9355C17.0237 38.5405 17.5125 39.0293 18.1174 39.0293C18.7211 39.0293 19.2112 38.5405 19.2112 37.9355C19.2112 37.3318 18.7211 36.8418 18.1174 36.8418Z"
    />
<path
      d="M54.6939 6.72881C54.3248 6.64293 53.9369 6.75444 53.6703 7.02361L49.1359 11.5939H46.9621L44.5691 9.11455V6.91039L49.0385 2.37431C49.303 2.106 49.4106 1.7202 49.323 1.35319C49.2359 0.986616 48.9659 0.690961 48.6087 0.570478C47.4859 0.191937 46.3109 0.000103766 45.1159 0.000103766C41.5536 0.000103766 38.3172 1.66124 36.2365 4.55754C34.2891 7.26885 33.6888 10.5915 34.5489 13.7715L26.4923 21.8281L13.0699 8.37499V5.7346C13.0699 5.35051 12.8682 4.99419 12.5388 4.7968L4.80524 0.156049C4.37458 -0.102435 3.82386 -0.0345032 3.46924 0.320539L0.375977 3.41337C0.0213622 3.76842 -0.0465699 4.31914 0.211487 4.7498L4.85138 12.4834C5.04877 12.8128 5.40467 13.014 5.78876 13.0145L8.42829 13.0153L21.8519 26.4684L13.8261 34.4943C10.6461 33.6346 7.32172 34.2358 4.60913 36.1845C1.71454 38.2639 0.0546875 41.4994 0.0546875 45.0618C0.0546875 46.2564 0.246521 47.4317 0.625061 48.5541C0.745972 48.9134 1.04462 49.1847 1.41376 49.2702C1.78333 49.356 2.17084 49.2445 2.43787 48.9754L6.97181 44.4055H9.1576L11.648 46.8959V49.0817L7.07819 53.6157C6.80903 53.8827 6.69751 54.2702 6.78339 54.6398C6.86884 55.0089 7.14014 55.3076 7.49946 55.4285C8.62183 55.807 9.79719 55.9989 10.9918 55.9989C14.5541 55.9989 17.7893 54.3386 19.8691 51.444C21.8178 48.7314 22.4189 45.4074 21.5593 42.2274L28.0051 35.7816L29.4817 37.3854L28.8041 38.0626C28.3769 38.4899 28.3769 39.1824 28.8041 39.6097C29.2313 40.0365 29.9235 40.0365 30.3512 39.6097L30.9647 38.9962L44.8186 54.0446C44.8288 54.0557 44.8395 54.0664 44.8502 54.0771C47.4137 56.6406 51.5669 56.6414 54.1317 54.0767C56.6892 51.5179 56.6892 47.3544 54.1317 44.7956C54.1206 44.7845 54.109 44.7738 54.0975 44.7631L39.0255 30.9357L39.6322 30.329C40.0595 29.9022 40.0595 29.2097 39.6322 28.7824C39.205 28.3552 38.5128 28.3552 38.0852 28.7824L37.4123 29.4557L35.8054 27.9809L42.2824 21.5038C43.2032 21.7499 44.1534 21.8747 45.1159 21.8747C51.1469 21.8747 56.053 16.9682 56.053 10.9376C56.053 9.7426 55.8612 8.56767 55.4826 7.44487C55.3617 7.08556 55.0631 6.81426 54.6939 6.72881ZM9.6562 11.1491C9.45112 10.9436 9.17298 10.8389 8.88245 10.8389L6.4087 10.8381L2.52674 4.35673L4.41217 2.4713L10.8824 6.35411V8.82787C10.8824 9.11754 10.9973 9.39525 11.202 9.60033L24.9456 23.3752L23.3986 24.9218L9.6562 11.1491ZM37.4772 32.4841L52.6004 46.358C54.2898 48.0653 54.2846 50.8296 52.5846 52.5305C50.8808 54.2343 48.1225 54.2395 46.4118 52.5454L32.5126 37.4478L37.4772 32.4841ZM35.8639 31.0037L31.0296 35.8371L29.5531 34.2332L34.257 29.5288L35.8639 31.0037ZM45.1159 19.6872C44.1593 19.6872 43.2185 19.5338 42.3205 19.2313C41.927 19.0993 41.492 19.201 41.1981 19.4945C35.7148 24.9778 23.8997 36.7924 19.5491 41.1435C19.2551 41.4374 19.153 41.8724 19.2859 42.2663C20.1951 44.9661 19.7601 47.8457 18.0922 50.1678C16.4289 52.483 13.8406 53.8114 10.9918 53.8114C10.6718 53.8114 10.3535 53.7938 10.0382 53.7601L13.5121 50.3131C13.7189 50.108 13.8355 49.8286 13.8355 49.5368V46.4426C13.8355 46.1525 13.7202 45.8744 13.5151 45.6693L10.3838 42.538C10.1787 42.333 9.90058 42.2176 9.61048 42.2176H6.51636C6.22455 42.2176 5.94513 42.3342 5.73963 42.541L2.29303 46.015C2.25885 45.6997 2.24176 45.3814 2.24176 45.0613C2.24176 42.212 3.56964 39.6242 5.88532 37.9609C8.20698 36.293 11.087 35.8576 13.7872 36.7672C14.1807 36.9001 14.6157 36.798 14.9096 36.504C14.9699 36.4442 36.5432 14.8704 36.5586 14.855C36.8526 14.5611 36.9543 14.1266 36.8218 13.7327C35.9122 11.0329 36.3463 8.1541 38.013 5.83373C39.6775 3.51634 42.2662 2.18761 45.1155 2.18761C45.4453 2.18761 45.773 2.20598 46.0977 2.24187L42.696 5.69444C42.4944 5.89909 42.3816 6.17467 42.3816 6.46178V9.5559C42.3816 9.83959 42.4914 10.1117 42.6883 10.3155L45.7102 13.4468C45.9162 13.6605 46.2003 13.7809 46.4972 13.7809H49.5913C49.8827 13.7809 50.1621 13.6647 50.3676 13.4575L53.8142 9.984C53.8484 10.2993 53.8655 10.6176 53.8655 10.9376C53.8655 15.7621 49.9404 19.6872 45.1159 19.6872Z"
    />
<path
      d="M34.1238 20.3824L20.4369 34.0693C20.0101 34.4961 20.0101 35.1887 20.4369 35.6159C20.8642 36.0432 21.5567 36.0432 21.984 35.6159L35.6708 21.9291C36.0981 21.5023 36.0981 20.8097 35.6708 20.3824C35.2436 19.9552 34.551 19.9552 34.1238 20.3824Z"
    />
<path
      d="M47.9451 49.4375C48.3724 49.8634 49.0649 49.8634 49.4922 49.4349C49.9186 49.0072 49.9173 48.3147 49.4896 47.8883L39.6309 38.0612C39.2032 37.6348 38.5102 37.6361 38.0843 38.0637C37.6574 38.4918 37.6587 39.184 38.0864 39.6104L47.9451 49.4375Z"
    />
</symbol>

<symbol id="Все для дома" viewBox="0 0 56 56">
<path
      d="M53.2246 20.9157H52.112V16.7807C52.112 14.3363 50.1234 12.3477 47.679 12.3477H31.6128C30.1234 12.3477 28.8042 13.0867 28 14.2164C27.1958 13.0866 25.8766 12.3477 24.3872 12.3477H14.2939C13.8409 12.3477 13.4736 12.7149 13.4736 13.168C13.4736 13.621 13.8409 13.9883 14.2939 13.9883H24.3872C25.927 13.9883 27.1797 15.241 27.1797 16.7807V24.985C27.1625 24.9684 27.1444 24.953 27.127 24.9367C26.1546 24.0301 24.8368 23.5075 23.5065 23.5075H9.84255C9.77025 22.4061 9.01939 21.4374 7.98328 21.0701C7.69136 20.9666 7.3827 20.9157 7.07306 20.9157H5.52858V16.7807C5.52858 15.241 6.78125 13.9883 8.32103 13.9883H11.0126C11.4657 13.9883 11.833 13.621 11.833 13.168C11.833 12.7149 11.4657 12.3477 11.0126 12.3477H8.32103C5.87661 12.3477 3.88795 14.3363 3.88795 16.7807V20.9157H2.77539C1.24502 20.9157 0 22.1609 0 23.691V32.2563C0 35.4433 2.59284 38.0361 5.77981 38.0361H6.19205C6.19205 38.0361 5.29386 40.452 5.2932 40.4539C4.72653 41.9779 5.89291 43.6521 7.51625 43.6521H8.83597C9.57469 43.6521 10.2818 43.3003 10.7275 42.7111L14.2637 38.0361H41.7365L45.2727 42.7112C45.7184 43.3003 46.4255 43.6521 47.1641 43.6521C47.1641 43.6521 48.483 43.6521 48.4837 43.6521C50.1091 43.6521 51.2734 41.9776 50.7068 40.4539L49.8078 38.0361H50.2202C53.4072 38.0361 56 35.4433 56 32.2563V23.691C56 22.1609 54.755 20.9157 53.2246 20.9157ZM28.8203 16.781C28.8203 15.2411 30.073 13.9884 31.6128 13.9884H47.679C49.2188 13.9884 50.4714 15.2411 50.4714 16.7808V20.9158C50.4714 20.9158 48.9274 20.9158 48.9268 20.9158C47.8361 20.9158 46.7899 21.6158 46.3668 22.62C46.2483 22.9013 46.1774 23.2033 46.1575 23.5077C46.1575 23.5077 32.4939 23.5077 32.4935 23.5077C31.1427 23.5077 29.7964 24.0512 28.8203 24.9852V16.781ZM9.84856 25.1482H23.5065C25.532 25.1484 27.1797 26.7961 27.1797 28.8215V29.988H9.84856V25.1482ZM9.41905 41.7214C9.28167 41.9031 9.06358 42.0115 8.83586 42.0115C8.83586 42.0115 7.52073 42.0115 7.51614 42.0115C7.01389 42.0115 6.65591 41.4962 6.83091 41.0257L7.94237 38.0361H12.2065L9.41905 41.7214ZM48.4837 42.0114H47.1641C46.9364 42.0114 46.7184 41.903 46.5811 41.7214L43.7935 38.0361H48.0576C48.0576 38.0361 49.1653 41.0152 49.1691 41.0256C49.3444 41.4972 48.9839 42.0114 48.4837 42.0114ZM50.2202 36.3955H5.77981C3.49748 36.3956 1.64062 34.5386 1.64062 32.2563V23.691C1.64062 23.0653 2.14966 22.5563 2.77539 22.5563H7.07306C7.6988 22.5563 8.20783 23.0653 8.20783 23.691V30.8082C8.20783 31.2612 8.57511 31.6285 9.02814 31.6285H39.1584C39.6115 31.6285 39.9787 31.2612 39.9787 30.8082C39.9787 30.3552 39.6115 29.9879 39.1584 29.9879H28.8203V28.8214C28.8203 26.796 30.468 25.1482 32.4935 25.1482H46.1514V29.988H42.4397C41.9867 29.988 41.6194 30.3553 41.6194 30.8083C41.6194 31.2613 41.9867 31.6286 42.4397 31.6286H46.9717C47.4248 31.6286 47.7921 31.2613 47.7921 30.8083V23.6912C47.7921 23.0654 48.3011 22.5564 48.9268 22.5564H53.2245C53.8502 22.5564 54.3593 23.0654 54.3593 23.6912V32.2563H54.3594C54.3594 34.5386 52.5025 36.3955 50.2202 36.3955Z"
    />
</symbol>

<symbol id="Транспорт" viewBox="0 0 56 56">
<path
      d="M53.8581 22.4358L52.6376 21.1435L48.3538 9.5965C47.6239 7.64607 45.7573 6.35376 43.6752 6.3418H13.0786C10.9966 6.3418 9.12991 7.64607 8.4 9.5965L4.17607 20.9999L2.41709 22.6273C0.88547 23.9315 0 25.8461 0 27.8563V44.6803C0.0119658 47.4324 2.24957 49.658 5.00171 49.658H8.16068C10.9128 49.658 13.1504 47.4324 13.1624 44.6803V42.2392H42.8376V44.6803C42.8496 47.4324 45.0872 49.658 47.8393 49.658H50.9983C53.7504 49.658 55.988 47.4324 56 44.6803V27.4136C55.988 25.535 55.2222 23.7401 53.8581 22.4358ZM10.6496 10.4102C11.0325 9.39308 12.0017 8.73496 13.0786 8.73496H43.6872C44.7641 8.73496 45.7333 9.40504 46.1162 10.4102L49.8496 20.4615H47.0615C46.4034 15.9743 42.2273 12.8751 37.7402 13.5452C34.1624 14.0717 31.3504 16.8837 30.8239 20.4615H6.91624L10.6496 10.4102ZM44.6205 20.4615H33.241C33.8991 17.3144 36.9863 15.3042 40.1333 15.9623C42.3829 16.4409 44.1419 18.1999 44.6205 20.4615ZM10.7692 44.6803C10.7573 46.1162 9.59658 47.2649 8.16068 47.2649H5.00171C3.56581 47.2649 2.40513 46.1162 2.39316 44.6803V41.5452C3.11111 42.0119 4.05641 42.2392 5.00171 42.2392H10.7692V44.6803ZM53.6068 44.6803C53.5949 46.1162 52.4342 47.2649 50.9983 47.2649H47.8393C46.4034 47.2649 45.2427 46.1042 45.2308 44.6803V42.2392H50.9983C51.9436 42.2392 52.8889 42.0119 53.6068 41.5452V44.6803ZM50.9983 39.8461H5.00171C3.57778 39.858 2.40513 38.7213 2.39316 37.2854V27.8563C2.39316 26.5401 2.97949 25.2837 3.98462 24.4341C3.99658 24.4221 4.02051 24.3982 4.03248 24.3862L5.65983 22.8546H50.9744L52.1231 24.0871C52.135 24.111 52.1709 24.123 52.1829 24.1469C53.0803 24.9965 53.5949 26.1811 53.5949 27.4136V37.2854H53.6068C53.5949 38.7093 52.4222 39.858 50.9983 39.8461Z"
    />
<path
      d="M15.7948 27.6411H6.82048C6.16236 27.6411 5.6239 28.1796 5.6239 28.8377V35.0599C5.6239 35.718 6.16236 36.2565 6.82048 36.2565H15.7948C16.453 36.2565 16.9914 35.718 16.9914 35.0599V28.8377C16.9914 28.1796 16.453 27.6411 15.7948 27.6411ZM14.5983 33.8633H8.01706V30.0343H14.5983V33.8633Z"
    />
<path
      d="M49.1795 27.6411H40.2051C39.547 27.6411 39.0085 28.1796 39.0085 28.8377V35.0599C39.0085 35.718 39.547 36.2565 40.2051 36.2565H49.1795C49.8376 36.2565 50.3761 35.718 50.3761 35.0599V28.8377C50.3761 28.1796 49.8376 27.6411 49.1795 27.6411ZM47.9829 33.8633H41.4017V30.0343H47.9829V33.8633Z"
    />
<path
      d="M33.7796 32.6665H22.2206C21.5624 32.6665 21.024 33.205 21.024 33.8631C21.024 34.5212 21.5624 35.0597 22.2206 35.0597H33.7796C34.4377 35.0597 34.9761 34.5212 34.9761 33.8631C34.9761 33.205 34.4377 32.6665 33.7796 32.6665Z"
    />
<path
      d="M33.7796 28.957H22.2206C21.5624 28.957 21.024 29.4955 21.024 30.1536C21.024 30.8117 21.5624 31.3502 22.2206 31.3502H33.7796C34.4377 31.3502 34.9761 30.8117 34.9761 30.1536C34.9761 29.4955 34.4377 28.957 33.7796 28.957Z"
    />
</symbol>

<symbol id="Здоровье" viewBox="0 0 56 56">
<path
      d="M55.794 31.2001L54.7974 16.6657C54.7328 15.7243 54.3046 14.8651 53.592 14.2466C52.8793 13.6281 51.9685 13.3252 51.0274 13.3938C49.1776 13.5286 47.7429 15.087 47.7612 16.9416L47.8789 28.7903L42.7463 35.3638C41.9269 36.4131 40.5675 36.8344 39.3344 36.5184L44.9188 29.2664C45.899 27.9935 45.7361 26.1495 44.5481 25.0683C43.9139 24.4909 43.0937 24.2057 42.2377 24.2656C41.3821 24.3254 40.6091 24.7216 40.0611 25.3815L31.6249 35.5413C30.2335 37.217 29.4791 39.3391 29.5001 41.517L29.6311 55.0092C29.6363 55.5469 30.0734 55.9802 30.6112 55.981L44.6584 56.0001C44.6588 56.0001 44.6593 56.0001 44.6597 56.0001C44.9345 56.0001 45.1967 55.8849 45.3825 55.6825C45.5687 55.4797 45.6612 55.2082 45.6373 54.9338L45.0639 48.3295L54.3892 35.9362C55.4114 34.578 55.9102 32.8959 55.794 31.2001ZM52.8209 34.7564L43.2697 47.4501C43.1242 47.6435 43.0552 47.8839 43.0762 48.125L43.5894 54.036L31.5844 54.0197L31.4629 41.498C31.4461 39.784 32.04 38.114 33.135 36.7953L41.5713 26.6353C41.7734 26.3918 42.0587 26.2456 42.3743 26.2237C42.69 26.2012 42.993 26.3067 43.227 26.5199C43.6655 26.9189 43.7256 27.5994 43.3638 28.069L37.0266 36.2986C36.8604 36.5143 36.7915 36.7894 36.8361 37.058C36.8807 37.3266 37.035 37.5647 37.2619 37.7151C39.5298 39.2193 42.6186 38.7171 44.2933 36.5719L49.6371 29.7278C49.774 29.5527 49.8471 29.3363 49.845 29.1141L49.724 16.9223C49.7157 16.1013 50.351 15.4113 51.17 15.3515C51.5885 15.3214 51.99 15.4553 52.3055 15.729C52.6211 16.0029 52.8106 16.3832 52.8393 16.8001L53.8358 31.3345C53.9197 32.5597 53.5595 33.7749 52.8209 34.7564Z"
    />
<path
      d="M15.9387 25.3813C15.3907 24.7214 14.6178 24.325 13.7622 24.2654C12.9071 24.2057 12.0861 24.4907 11.452 25.068C10.2638 26.1493 10.1009 27.9934 11.0811 29.2663L16.6656 36.5183C15.4333 36.8339 14.073 36.4131 13.2536 35.3637L8.121 28.7902L8.23864 16.9415C8.25696 15.0869 6.82245 13.5285 4.97263 13.3937C4.03287 13.3256 3.12097 13.6278 2.40797 14.2465C1.69537 14.865 1.26723 15.7242 1.20259 16.6656L0.205905 31.1999C0.0895796 32.8957 0.588509 34.5778 1.61045 35.9361L10.9358 48.3294L10.3625 54.9337C10.3385 55.2079 10.431 55.4796 10.6172 55.6824C10.8032 55.8848 11.0654 56 11.34 56C11.3404 56 11.341 56 11.3413 56L25.3886 55.9809C25.9264 55.9801 26.3634 55.5468 26.3686 55.009L26.4998 41.5169C26.5208 39.3391 25.7663 37.217 24.375 35.5413L15.9387 25.3813ZM24.4155 54.0194L12.4106 54.0358L12.9238 48.1248C12.9448 47.8836 12.8759 47.6432 12.7303 47.4498L3.17894 34.7561C2.44043 33.7747 2.0802 32.5594 2.16407 31.3343L3.16075 16.7999C3.18941 16.383 3.37888 16.0026 3.69449 15.7287C3.98066 15.4804 4.33905 15.3471 4.71407 15.3471C4.75254 15.3471 4.79114 15.3485 4.83 15.3512C5.64899 15.4109 6.284 16.1009 6.27589 16.9221L6.15485 29.1139C6.15263 29.3361 6.22591 29.5525 6.36277 29.7276L11.7065 36.5717C13.3816 38.7168 16.4701 39.2187 18.7381 37.715C18.965 37.5645 19.1193 37.3265 19.1639 37.0579C19.2085 36.7893 19.1395 36.5141 18.9734 36.2983L12.6361 28.0689C12.2744 27.5992 12.3345 26.9187 12.7731 26.5197C13.0072 26.3065 13.3097 26.2017 13.6256 26.2234C13.9413 26.2454 14.2266 26.3917 14.4287 26.6352L22.865 36.7951C23.96 38.114 24.5539 39.784 24.5371 41.4979L24.4155 54.0194Z"
    />
<path
      d="M47.2247 11.0429C47.2247 8.09331 46.0759 5.32022 43.9902 3.23447C41.9044 1.1486 39.1315 0 36.1817 0C33.2321 0 30.459 1.1486 28.3731 3.23434L28 3.60766L27.6266 3.23434C25.541 1.1486 22.7679 0 19.8182 0C16.8686 0 14.0955 1.1486 12.0096 3.23434C7.70413 7.53995 7.70413 14.5456 12.0097 18.8514L27.3059 34.1476C27.4976 34.3391 27.7489 34.4351 28 34.4351C28.2511 34.4351 28.5023 34.3393 28.694 34.1476L43.9902 18.8513C46.0759 16.7656 47.2247 13.9925 47.2247 11.0429ZM28.0001 32.0659L13.3977 17.4635C9.85726 13.9231 9.85726 8.16253 13.3977 4.62213C15.1126 2.90722 17.3929 1.96275 19.8182 1.96275C22.2436 1.96275 24.5238 2.90722 26.2389 4.62227L27.3061 5.68948C27.49 5.87358 27.7396 5.97695 28 5.97695C28.2604 5.97695 28.5099 5.87345 28.694 5.68948L29.7611 4.62227C31.4761 2.90722 33.7564 1.96275 36.1817 1.96275C38.6072 1.96275 40.8874 2.90722 42.6023 4.62227C44.3173 6.33731 45.2619 8.6175 45.2619 11.0429C45.2619 13.4684 44.3173 15.7485 42.6023 17.4636L28.0001 32.0659Z"
    />
</symbol>

<symbol id="Развлечение" viewBox="0 0 56 56">
<path
      d="M52.9915 27.517L50.7424 25.2679V3.8683L52.6321 1.97862C53.0026 1.60817 53.0026 1.00748 52.6321 0.637138C52.2615 0.266684 51.661 0.266684 51.2905 0.637138L49.4008 2.52681H28.001L25.7521 0.27784C25.3816 -0.0926134 24.7809 -0.0926134 24.4106 0.27784C24.0401 0.648294 24.0401 1.24898 24.4106 1.61933L26.5635 3.77227L19.8865 32.0664C19.3359 32.7544 19.1516 33.6715 19.4095 34.528C19.6965 35.481 20.4806 36.1959 21.4559 36.3938L25.7139 37.2581C26.5211 37.4221 27.2077 37.9323 27.5973 38.6581C27.9869 39.3839 28.0329 40.2379 27.7234 41.0013C27.22 42.243 25.9028 42.943 24.5925 42.665L8.64041 39.2854C6.23853 38.7764 3.81686 40.1399 3.00584 42.457C2.53553 43.8006 2.67279 45.2793 3.38231 46.5133C4.09194 47.7476 5.30064 48.6103 6.69813 48.8799L6.76419 48.8927C8.02124 49.1352 9.08874 49.9217 9.69304 51.0504C10.2972 52.1792 10.3599 53.5035 9.86465 54.6843C9.66198 55.1675 9.88948 55.7234 10.3726 55.9261C10.4925 55.9763 10.6167 56.0001 10.739 56.0001C11.1098 56.0001 11.4619 55.7814 11.6141 55.418C12.3312 53.708 12.2406 51.7897 11.3654 50.155C10.4903 48.5203 8.94404 47.3811 7.12371 47.0299L7.05765 47.0171C6.20157 46.852 5.46142 46.3237 5.02688 45.5678C4.59233 44.8119 4.50833 43.9065 4.79642 43.0836C5.29299 41.6646 6.77666 40.8301 8.24688 41.1414L24.1986 44.521C26.4105 44.9896 28.6317 43.8092 29.4811 41.7141C30.0034 40.4261 29.9258 38.9852 29.2684 37.7607C28.6111 36.5361 27.453 35.6754 26.0909 35.3989L21.8329 34.5346C21.4094 34.4486 21.2672 34.1187 21.2258 33.9809C21.1921 33.8694 21.1443 33.6165 21.2893 33.3622L49.4965 26.7058L51.6495 28.8588C51.8348 29.0439 52.0777 29.1367 52.3204 29.1367C52.5631 29.1367 52.806 29.0442 52.9913 28.8588C53.3619 28.4881 53.3619 27.8874 52.9915 27.517ZM47.5035 4.42403L38.701 13.2264L29.8984 4.42403H47.5035ZM28.1406 5.34935L37.3593 14.568L22.4459 29.4816L28.1406 5.34935ZM23.7875 30.8233L38.701 15.9097L47.9197 25.1284L23.7875 30.8233ZM48.845 23.3705L40.0425 14.568L48.845 5.76552V23.3705Z"
    />
</symbol>

<symbol id="Алкоголь" viewBox="0 0 56 56">
<path
      d="M13.5353 4.72461C13.0764 4.72461 12.7043 5.09659 12.7043 5.55553V5.90706C12.7043 6.36589 13.0763 6.73798 13.5353 6.73798C13.9941 6.73798 14.3662 6.366 14.3662 5.90706V5.55553C14.3661 5.09659 13.9941 4.72461 13.5353 4.72461Z"
    />
<path
      d="M11.1192 7.4917H10.7678C10.309 7.4917 9.93689 7.86368 9.93689 8.32262C9.93689 8.78145 10.3089 9.15354 10.7678 9.15354H11.1192C11.5781 9.15354 11.9502 8.78156 11.9502 8.32262C11.9502 7.86379 11.5782 7.4917 11.1192 7.4917Z"
    />
<path
      d="M12.4144 6.02695L12.1657 5.77845C11.8413 5.45404 11.3151 5.45404 10.9907 5.77856C10.6663 6.10307 10.6663 6.62917 10.9908 6.95357L11.2394 7.20207C11.4016 7.36428 11.6143 7.44543 11.8269 7.44543C12.0395 7.44543 12.2523 7.36428 12.4145 7.20196C12.7389 6.87745 12.7389 6.35135 12.4144 6.02695Z"
    />
<path
      d="M12.4144 9.44358C12.0899 9.11907 11.5638 9.11907 11.2393 9.44358L10.9907 9.69219C10.6662 10.0166 10.6662 10.5428 10.9907 10.8672C11.1529 11.0294 11.3655 11.1106 11.5783 11.1106C11.7909 11.1106 12.0035 11.0294 12.1658 10.8672L12.4144 10.6186C12.739 10.2942 12.739 9.76799 12.4144 9.44358Z"
    />
<path
      d="M49.7966 6.85344H21.7263C21.4095 5.07598 20.5219 3.44805 19.1799 2.20795C17.6392 0.784109 15.6344 0 13.5353 0C8.94603 0 5.2124 3.73363 5.2124 8.32289C5.2124 12.9122 8.94603 16.6458 13.5353 16.6458C14.3779 16.6458 15.2059 16.5178 16.0049 16.269C17.2569 17.4502 18.8082 18.3339 20.5601 18.7895C21.6919 19.0839 22.5518 20.0179 22.7506 21.1692L23.8067 27.2869C24.1799 29.4483 25.3826 31.322 27.1934 32.5629C28.5664 33.5037 29.386 35.0378 29.386 36.6667V49.1358C28.7525 49.5373 28.3467 50.243 28.3467 51.0216C28.3467 51.0453 28.3471 51.0689 28.3478 51.0926C26.2718 51.5169 24.5618 51.9077 23.2638 52.2545C22.3795 52.4907 21.7124 52.6991 21.2242 52.8915C20.7695 53.0707 19.9229 53.4044 19.9229 54.1789C19.9229 55.2196 21.276 55.3972 22.3632 55.5401C23.2972 55.6628 24.5912 55.765 26.2093 55.844C28.9428 55.9776 31.712 55.9998 31.7397 56C31.7417 56 31.7438 56 31.7459 56C31.748 56 31.7502 56 31.7521 56C31.7798 55.9998 34.549 55.9775 37.2825 55.844C38.9006 55.765 40.1946 55.6628 41.1286 55.5401C42.2158 55.3972 43.5689 55.2196 43.5689 54.1789C43.5689 53.3558 42.8098 52.9312 40.0374 52.2039C38.3574 51.7632 36.2644 51.3183 34.7613 51.0147C34.7595 50.4148 34.521 49.8541 34.1058 49.4417V36.6665C34.1058 35.0377 34.9255 33.5036 36.2985 32.5628C38.1092 31.3219 39.3119 29.4482 39.6851 27.2868L40.7412 21.1691C40.94 20.0178 41.7998 19.0837 42.9317 18.7894C46.7271 17.8024 49.5817 14.8092 50.4845 11.1234C50.488 11.1092 50.4917 11.0952 50.4945 11.0808C50.6852 10.2879 50.7875 9.464 50.7875 8.62061V7.84459C50.7876 7.29805 50.343 6.85344 49.7966 6.85344ZM13.5353 14.9839C9.86237 14.9839 6.87425 11.9958 6.87425 8.32289C6.87425 4.64997 9.86237 1.66184 13.5353 1.66184C15.2152 1.66184 16.8193 2.28922 18.0522 3.42847C19.0525 4.3528 19.737 5.54575 20.0313 6.85344H19.1802C18.5225 4.31988 16.214 2.48828 13.5353 2.48828C10.318 2.48828 7.70068 5.10573 7.70068 8.32289C7.70068 11.54 10.3181 14.1575 13.5353 14.1575C13.7748 14.1575 14.0149 14.1413 14.254 14.1115C14.4135 14.3717 14.5842 14.6244 14.7654 14.8695C14.3616 14.9454 13.9506 14.9839 13.5353 14.9839ZM16.0797 5.7785C15.7553 5.45409 15.2291 5.45409 14.9047 5.7785L14.6562 6.027C14.4324 6.25067 14.363 6.57027 14.4478 6.85344H13.6955C13.149 6.85344 12.7044 7.29805 12.7044 7.84459V8.62061C12.7044 9.46378 12.8066 10.2875 12.9973 11.0801C13.0002 11.0955 13.0042 11.1105 13.0079 11.1256C13.1226 11.5935 13.2678 12.0506 13.4434 12.4935C11.1849 12.4443 9.36242 10.593 9.36242 8.32289C9.36242 6.02197 11.2344 4.15002 13.5353 4.15002C15.3006 4.15002 16.8416 5.2617 17.4406 6.85344H16.1639C16.4002 6.52848 16.3727 6.07152 16.0797 5.7785ZM34.3099 52.6189C37.2309 53.2067 39.0648 53.6522 40.2126 53.974C38.1135 54.1802 34.7462 54.3152 31.746 54.3382C28.7465 54.3152 25.3795 54.1802 23.2803 53.9742C24.3781 53.6663 26.103 53.2454 28.8063 52.6949C29.5541 52.5428 30.0718 51.8425 30.0104 51.0666C30.0092 51.0518 30.0086 51.0367 30.0086 51.0215C30.0086 50.7641 30.1826 50.5378 30.4319 50.471C30.7952 50.3737 31.0479 50.0445 31.0479 49.6684V36.6665C31.0479 35.5725 30.7725 34.5115 30.267 33.568C30.7314 33.5981 31.2385 33.6135 31.746 33.6135C32.2535 33.6135 32.7606 33.5981 33.225 33.568C32.7196 34.5116 32.4441 35.5726 32.4441 36.6665V49.8361C32.4441 50.1212 32.5904 50.3864 32.8314 50.5386C32.9993 50.6446 33.0996 50.825 33.0996 51.0214C33.0996 51.034 33.0992 51.0466 33.0985 51.0581C33.0506 51.7994 33.5714 52.4704 34.3099 52.6189ZM49.126 8.62061H49.1259C49.1259 9.12012 49.0839 9.61166 49.0032 10.0917H23.989C23.5302 10.0917 23.1581 10.4637 23.1581 10.9226C23.1581 11.3815 23.5301 11.7535 23.989 11.7535H48.5522C47.5587 14.3772 45.3481 16.4442 42.5138 17.1812C40.7518 17.6393 39.4134 19.0937 39.104 20.8865L38.0479 27.0041C37.7517 28.7198 36.7969 30.2071 35.3594 31.1921C35.1365 31.3449 34.4746 31.7017 34.3538 31.7555C33.6963 32.0147 29.8013 32.0148 29.1394 31.756C29.019 31.7028 28.3563 31.3453 28.1327 31.1922C26.6952 30.2071 25.7404 28.7198 25.4443 27.0042L24.3881 20.8866C24.0787 19.0938 22.7402 17.6395 20.9784 17.1813C19.3746 16.7642 17.9709 15.921 16.8736 14.7925C16.8476 14.7604 16.8191 14.7308 16.789 14.7033C15.9876 13.856 15.3566 12.8541 14.9399 11.7537H20.1232C20.582 11.7537 20.9541 11.3817 20.9541 10.9227C20.9541 10.4639 20.5821 10.0918 20.1232 10.0918H14.4889C14.4082 9.61176 14.3662 9.12012 14.3662 8.62072V8.51528H49.126V8.62061Z"
    />
</symbol>

<symbol width="63" height="57" viewBox="0 0 63 57">
<path
      d="M30.3588 21.1923C29.8281 20.6114 29.0725 20.2712 28.2859 20.259C26.7036 20.2387 25.3946 21.5002 25.3678 23.0812C25.3592 23.5909 25.7654 24.011 26.2749 24.0196C26.2803 24.0197 26.2855 24.0197 26.2909 24.0197C26.7933 24.0197 27.2048 23.6167 27.2133 23.1124C27.2227 22.5477 27.6869 22.0946 28.2569 22.1045C28.5415 22.1089 28.804 22.227 28.9961 22.4372C29.3399 22.8136 29.9237 22.8399 30.2999 22.4961C30.6762 22.1525 30.7026 21.5686 30.3588 21.1923Z"
    />
<path
      d="M35.2687 24.2001C34.9858 23.5352 34.4352 23.0104 33.7576 22.7602C32.395 22.2576 30.876 22.9561 30.3711 24.3171C30.1938 24.7951 30.4376 25.3261 30.9153 25.5034C31.0212 25.5427 31.1296 25.5613 31.2361 25.5613C31.6111 25.5613 31.9635 25.3312 32.1015 24.9591C32.2531 24.5503 32.71 24.3411 33.1185 24.4919C33.3239 24.5677 33.4843 24.7206 33.5701 24.9224C33.7695 25.3913 34.3117 25.6101 34.7805 25.4105C35.2497 25.2111 35.4681 24.6692 35.2687 24.2001Z"
    />
<path
      d="M41.2166 16.027C40.8558 15.6668 40.2714 15.6676 39.9115 16.0283L39.0416 16.9C38.6816 17.2608 38.6822 17.8451 39.043 18.205C39.223 18.3848 39.4589 18.4746 39.6947 18.4746C39.9312 18.4746 40.1677 18.3843 40.348 18.2037L41.2179 17.332C41.578 16.9713 41.5773 16.3869 41.2166 16.027Z"
    />
<path
      d="M35.4751 27.9404H34.2451C33.7353 27.9404 33.3223 28.3536 33.3223 28.8633C33.3223 29.3729 33.7353 29.7861 34.2451 29.7861H35.4751C35.9849 29.7861 36.3979 29.3729 36.3979 28.8633C36.3979 28.3536 35.9849 27.9404 35.4751 27.9404Z"
    />
<path
      d="M44.9059 27.9404H43.6758C43.166 27.9404 42.7529 28.3536 42.7529 28.8633C42.7529 29.3729 43.1661 29.7861 43.6758 29.7861H44.9059C45.4155 29.7861 45.8287 29.3729 45.8287 28.8633C45.8287 28.3536 45.4155 27.9404 44.9059 27.9404Z"
    />
<path
      d="M68.9703 44.5803L68.73 43.2832C68.5768 42.4543 67.8531 41.8528 67.0091 41.8528C66.9032 41.8528 66.7964 41.8625 66.6913 41.8818L61.799 42.7805L64.0145 41.2994C64.5952 40.9113 64.8886 40.2171 64.762 39.5284C64.7268 39.3398 64.6609 39.1588 64.5654 38.9893L63.8949 37.8021C63.6652 37.3942 63.2734 37.0911 62.8212 36.971C62.5997 36.9119 62.3682 36.8988 62.1423 36.9282C62.389 35.5666 62.5162 34.1759 62.5162 32.7602C62.5162 32.1321 62.1384 31.5915 61.5989 31.3515C62.3039 29.6746 62.352 27.7548 61.6551 25.9967C61.5986 25.8538 61.5147 25.7262 61.4061 25.6174C61.2983 25.5096 61.1722 25.4263 61.0291 25.3688C60.1939 25.0362 59.3162 24.8677 58.4203 24.8677C58.3058 24.8677 58.1917 24.8706 58.078 24.876C57.9502 22.3003 55.8184 20.2441 53.216 20.2441C52.8733 20.2441 52.5391 20.2805 52.2164 20.3484C52.4405 19.0072 52.3085 17.6041 51.7862 16.2868C51.7301 16.142 51.6458 16.012 51.5312 15.8956C51.421 15.7854 51.2917 15.7003 51.1482 15.6434C50.2486 15.2851 49.3031 15.1035 48.3379 15.1035C46.884 15.1035 45.4932 15.5122 44.2925 16.2721C43.8539 15.0014 43.1305 13.8085 42.1198 12.7955C41.8237 12.4989 41.43 12.3355 41.011 12.3355C40.592 12.3355 40.1983 12.4989 39.9019 12.7957L35.4337 17.2741C34.6068 16.5366 33.5187 16.0957 32.3377 16.0957C32.0697 16.0957 31.7991 16.1192 31.5335 16.1655C30.5709 16.3331 29.6851 16.8042 29.006 17.4942C28.1352 17.074 27.1376 16.9307 26.179 17.0975C25.9681 17.1342 25.7635 17.1859 25.5649 17.2489V13.7979C25.5649 11.4214 23.6548 9.48454 21.2921 9.44369V7.48651C22.0153 7.36137 22.5676 6.73101 22.5676 5.97255V1.53808C22.5676 0.690044 21.8777 0 21.0295 0H13.5248C12.6766 0 11.9867 0.690044 11.9867 1.53808V5.97255C11.9867 6.73101 12.5389 7.36137 13.2622 7.48651V9.44344C10.8995 9.48417 8.98954 11.421 8.98954 13.7977V40.732C7.14704 42.396 6 44.7178 6 47.2853C6 52.3358 10.4327 56.4448 15.8815 56.4448L52.8184 56.434C54.0791 56.4335 55.2648 55.8794 56.0713 54.914C56.8568 53.9742 57.1906 52.7534 56.9983 51.5495L64.3758 52.8754C64.4779 52.8937 64.5825 52.9031 64.6862 52.9031C65.0541 52.9031 65.4067 52.7901 65.7052 52.5767C66.089 52.3026 66.3487 51.8782 66.418 51.4127L66.6178 50.0719C66.6466 49.8798 66.6434 49.6864 66.6083 49.4968C66.4814 48.8112 65.9593 48.2672 65.2782 48.1111L62.6779 47.5146L67.5654 46.6167C68.0263 46.5321 68.4262 46.2733 68.6915 45.8881C68.9563 45.5038 69.0552 45.0394 68.9703 44.5803ZM58.4203 26.7131C58.9759 26.7131 59.5221 26.8011 60.0473 26.9745C60.5166 28.4035 60.3409 29.9449 59.606 31.2182H57.12L57.9133 30.4231C58.2733 30.0623 58.2726 29.478 57.9117 29.1179C57.5508 28.7579 56.9664 28.7585 56.6066 29.1194L56.1869 29.5401C55.9902 28.8923 55.6466 28.3122 55.1951 27.8364C56.111 27.1091 57.2354 26.7131 58.4203 26.7131ZM53.216 22.0895C54.8826 22.0895 56.2385 23.4494 56.2385 25.121C56.2385 25.152 56.237 25.1827 56.2361 25.2134C55.2633 25.5298 54.3667 26.0583 53.602 26.776C53.4803 26.7299 53.3569 26.687 53.2301 26.652C52.9602 25.1936 51.9774 24.0247 50.6791 23.4787C51.2179 22.644 52.1529 22.0895 53.216 22.0895ZM48.3378 16.9489C48.9646 16.9489 49.5806 17.0503 50.1741 17.2509C50.6512 18.6693 50.5537 20.193 49.9459 21.5128C49.4462 21.968 49.0408 22.5254 48.7637 23.1519C48.5989 23.1615 48.4341 23.1797 48.2714 23.208C47.5482 23.3339 46.8739 23.6477 46.3096 24.1027C46.1172 23.7508 45.8815 23.4261 45.6116 23.1337L47.7279 21.0126C48.0879 20.6519 48.0872 20.0675 47.7263 19.7076C47.3655 19.3476 46.7811 19.3482 46.4211 19.7091L44.1081 22.0274C43.6679 21.8193 43.1922 21.6746 42.6923 21.6069C42.9083 20.5057 43.4426 19.468 44.2693 18.6394C45.3569 17.5492 46.8018 16.9489 48.3378 16.9489ZM41.2663 31.2182H40.4664C40.3317 30.8754 39.9986 30.6324 39.6079 30.6324C39.2172 30.6324 38.8841 30.8755 38.7494 31.2182H37.8084C38.0269 30.8624 37.9827 30.3909 37.6742 30.083C37.3135 29.723 36.7291 29.7236 36.3691 30.0844L35.4993 30.956C35.4211 31.0343 35.3611 31.1235 35.3169 31.2182H33.4386C32.7352 30.1387 32.3058 28.8646 32.255 27.4939H46.8958C46.845 28.8646 46.4157 30.1387 45.7122 31.2182H43.7576C43.7136 31.1235 43.6533 31.0341 43.5753 30.9559L42.7056 30.0842C42.3454 29.7236 41.7613 29.7226 41.4006 30.0828C41.0918 30.3906 41.0477 30.8622 41.2663 31.2182ZM39.12 25.6482C39.4679 24.359 40.6438 23.4077 42.0375 23.4077C43.4312 23.4077 44.6072 24.3591 44.955 25.6482H39.12ZM41.0072 14.3007C41.885 15.2494 42.4654 16.3758 42.75 17.5597C42.2789 18.0717 41.8875 18.6375 41.5787 19.2395C41.4386 19.1536 41.2743 19.1033 41.098 19.1033H39.8683C39.3586 19.1033 38.9454 19.5165 38.9454 20.0262C38.9454 20.5358 39.3586 20.949 39.8683 20.949H40.947C40.8864 21.2038 40.8392 21.4618 40.805 21.7216C40.4386 21.8179 40.0886 21.9549 39.7611 22.1294C39.146 21.0679 38.1274 20.2768 36.9206 19.9595C36.9202 19.9569 36.9197 19.9543 36.9192 19.9517C36.8469 19.5341 36.7206 19.1379 36.5485 18.7696L41.0072 14.3007ZM24.3248 22.628C24.2707 22.4766 24.2297 22.3214 24.2027 22.1656C23.9381 20.6397 24.9667 19.1818 26.4953 18.9157C26.6565 18.8876 26.8203 18.8733 26.982 18.8733C27.59 18.8733 28.171 19.0673 28.6621 19.4341C28.8652 19.5859 29.1221 19.6473 29.3722 19.604C29.6222 19.5606 29.8433 19.4162 29.9836 19.2047C30.4168 18.5512 31.0797 18.1176 31.85 17.9835C32.0115 17.9553 32.1757 17.9412 32.3377 17.9412C33.705 17.9412 34.8671 18.9194 35.1006 20.2673C35.1274 20.4218 35.1412 20.5827 35.1414 20.7457C35.1423 21.2234 35.5076 21.6216 35.9836 21.6634C37.0153 21.7541 37.8936 22.4034 38.3008 23.3182C37.7557 23.9724 37.3778 24.7712 37.2343 25.6482H31.9714C31.317 25.6482 30.7556 26.0521 30.5214 26.6238C29.3636 25.8352 27.999 25.4103 26.5689 25.4103C25.673 25.4103 24.7953 25.579 23.9596 25.9117C23.8179 25.9683 23.6911 26.0519 23.5831 26.1599C23.4736 26.2694 23.3895 26.3978 23.3344 26.5385C23.122 27.0741 22.9804 27.6248 22.9039 28.1789C22.5731 27.8023 22.3401 27.3341 22.249 26.8087C22.032 25.5566 22.6874 24.3099 23.8425 23.7769C24.2766 23.5765 24.4859 23.078 24.3248 22.628ZM27.0759 30.9659L27.3276 31.2182H25.1112C24.6136 30.0638 24.538 28.7498 24.942 27.5174C25.4679 27.3437 26.0139 27.2559 26.5689 27.2559C27.9595 27.2559 29.2676 27.7994 30.2521 28.7861C30.383 28.9174 30.5049 29.0549 30.6195 29.1971C30.7759 29.9051 31.0162 30.5815 31.3258 31.2181H29.935L28.3825 29.6621C28.0224 29.3014 27.438 29.3004 27.0775 29.6606C26.7166 30.0207 26.7158 30.6051 27.0759 30.9659ZM23.1458 31.2182H19.8559C20.0026 30.3243 20.5403 29.5623 21.2867 29.1129C21.7285 29.7049 22.3052 30.1835 22.9697 30.5078C23.0167 30.7472 23.0744 30.9846 23.1458 31.2182ZM13.8324 1.8457H20.7219V5.66493H13.8324V1.8457ZM19.4464 7.51063V9.4416H15.108V7.51063H19.4464ZM10.8354 17.5403H16.8281C17.3379 17.5403 17.7509 17.1271 17.7509 16.6174C17.7509 16.1078 17.3379 15.6946 16.8281 15.6946H10.8354V13.7977C10.8354 12.4134 11.958 11.2873 13.338 11.2873H21.2164C22.5965 11.2873 23.7192 12.4134 23.7192 13.7977V15.6946H21.996C21.4862 15.6946 21.0732 16.1078 21.0732 16.6174C21.0732 17.1271 21.4862 17.5403 21.996 17.5403H23.7192V18.3594C22.6618 19.396 22.1127 20.9163 22.3839 22.4801C22.3844 22.4832 22.385 22.4864 22.3855 22.4896C20.905 23.5053 20.1161 25.3111 20.4303 27.124C20.4486 27.2298 20.4716 27.3339 20.4967 27.4369C20.0357 27.6911 19.6216 28.0194 19.2667 28.4035H10.8354V17.5403ZM10.8352 30.2491H18.1951C18.0972 30.5602 18.028 30.8839 17.9943 31.2182H17.8388C16.9894 31.2182 16.2982 31.9099 16.2982 32.76C16.2982 34.2254 16.4345 35.6639 16.6984 37.0713C16.4332 37.05 16.1613 37.0386 15.8847 37.0386C14.7687 37.0386 13.7053 37.2156 12.8908 37.5373C11.645 38.0292 11.3006 38.7277 11.2254 39.2111C11.0934 39.2768 10.9637 39.3462 10.8352 39.4172V30.2491ZM22.5211 41.586C22.8534 41.8519 23.0566 42.0779 23.1743 42.241C23.1632 42.2411 23.1517 42.2412 23.14 42.2412C22.6177 42.2412 21.6792 42.0307 20.612 41.4399C20.2147 41.2198 19.8486 40.9711 19.5533 40.721C19.209 40.4292 18.7042 40.4295 18.3601 40.7211C18.0648 40.9715 17.6989 41.2201 17.3019 41.4397C16.2345 42.0307 15.296 42.2412 14.7738 42.2412C14.7619 42.2412 14.7504 42.2411 14.7392 42.241C14.8569 42.0779 15.06 41.8518 15.3925 41.5857C15.683 41.3532 15.8054 40.9688 15.7029 40.6111C15.6003 40.2533 15.293 39.992 14.9232 39.9487C14.0226 39.8432 13.4532 39.6139 13.1865 39.4471C13.5206 39.239 14.3652 38.8843 15.8851 38.8843C17.1438 38.8843 18.0638 39.1489 18.5051 39.3967C18.7858 39.5542 19.1279 39.5542 19.4086 39.3969C19.8501 39.1491 20.7702 38.8844 22.029 38.8844C23.549 38.8844 24.3935 39.2393 24.7274 39.4472C24.4609 39.6142 23.8913 39.8433 22.9905 39.9489C22.6207 39.9923 22.3132 40.2534 22.2107 40.6113C22.1079 40.9692 22.2303 41.3536 22.5211 41.586ZM20.675 52.8184L20.7068 52.9894C20.8165 53.5821 21.048 54.1261 21.3713 54.5991H15.8815C11.4506 54.5991 7.8457 51.3182 7.8457 47.2853C7.8457 44.5291 9.52996 42.1253 12.0101 40.8788C12.2949 41.0915 12.65 41.2748 13.0714 41.4227C12.9043 41.708 12.7879 42.0149 12.7604 42.335C12.724 42.7605 12.8542 43.1646 13.1273 43.4729C13.4882 43.8804 14.0422 44.087 14.7738 44.087C15.7488 44.087 17.0282 43.701 18.1959 43.0545C18.4647 42.9058 18.7189 42.7487 18.9569 42.5845C19.1948 42.7485 19.449 42.9057 19.7179 43.0547C20.8857 43.701 22.165 44.0869 23.14 44.087H23.1401C23.8715 44.087 24.4255 43.8804 24.7862 43.473C25.0595 43.1647 25.1898 42.7606 25.1533 42.335C25.1258 42.0149 25.0094 41.708 24.8423 41.4227C25.2637 41.2747 25.6189 41.0913 25.9037 40.8788C27.8706 41.8674 29.3362 43.584 29.8588 45.627L23.3318 48.1065C21.4213 48.8324 20.3039 50.814 20.675 52.8184ZM54.6548 53.7307C54.1997 54.2755 53.53 54.5881 52.8176 54.5883L51.8489 54.5887L51.2438 51.3212C51.1509 50.82 50.6697 50.4886 50.1682 50.5818C49.6672 50.6746 49.3361 51.156 49.4289 51.6572L49.972 54.5893L46.7966 54.5905L46.3875 52.381C46.2946 51.8798 45.8133 51.5488 45.312 51.6416C44.8109 51.7344 44.4798 52.2158 44.5726 52.717L44.9196 54.5913L37.5337 54.5941L36.9778 51.5932C36.8848 51.0921 36.4037 50.7611 35.9022 50.854C35.4011 50.9467 35.0701 51.4283 35.1629 51.9295L35.6566 54.5948L24.8724 54.599C24.8721 54.599 24.8719 54.599 24.8716 54.599C23.7184 54.599 22.7301 53.7808 22.5212 52.6529L22.4894 52.4819C22.2809 51.3553 22.9106 50.2408 23.9869 49.8318L27.614 48.4539L27.8842 49.9123C27.9665 50.3566 28.3543 50.6672 28.7904 50.6672C28.8463 50.6672 28.9029 50.662 28.9597 50.6516C29.4608 50.5587 29.7918 50.0772 29.6989 49.576L29.3675 47.7878L34.7514 45.7425C35.2278 45.5615 35.4674 45.0285 35.2864 44.552C35.1054 44.0755 34.5717 43.836 34.096 44.017L31.5907 44.9688C30.8879 42.4804 29.0823 40.4018 26.6879 39.2109C26.6127 38.7276 26.2683 38.0291 25.0226 37.5371C24.2082 37.2155 23.1448 37.0384 22.0288 37.0384C21.2607 37.0384 20.5272 37.1232 19.8798 37.2776V36.7202C19.8798 36.2106 19.4667 35.7974 18.9569 35.7974C18.7415 35.7974 18.5438 35.8717 18.3867 35.9955C18.2411 35.0329 18.1597 34.0552 18.1462 33.0637H48.2049C48.7147 33.0637 49.1278 32.6505 49.1278 32.1408C49.1278 31.6312 48.7147 31.218 48.2049 31.218H47.8273C48.415 30.0077 48.7469 28.6507 48.7469 27.2166C48.7469 26.4024 48.124 25.7317 47.3301 25.6555C47.6757 25.3296 48.1071 25.1098 48.588 25.026C48.7288 25.0016 48.8718 24.9891 49.0131 24.9891C50.2045 24.9891 51.217 25.8415 51.4204 27.0156C51.4439 27.1515 51.4559 27.2918 51.456 27.4327C51.4567 27.9106 51.8221 28.309 52.2982 28.3509C53.401 28.4477 54.3033 29.2772 54.4925 30.3679C54.5427 30.6579 54.5364 30.9441 54.4861 31.218H53.4959C52.9861 31.218 52.5731 31.6312 52.5731 32.1408C52.5731 32.6505 52.9861 33.0637 53.4959 33.0637H60.6685C60.6456 34.7565 60.4276 36.4102 60.0209 38.0146L55.0196 40.9669C54.7137 39.9023 54.0027 38.9993 53.0232 38.451C51.9245 37.8362 50.6188 37.7401 49.4413 38.1873L39.1409 42.1004C38.6644 42.2814 38.4249 42.8145 38.6059 43.2909C38.7869 43.7675 39.3205 44.0067 39.7963 43.8259L41.1532 43.3105L41.5746 45.5852C41.6569 46.0296 42.0447 46.3403 42.4809 46.3403C42.5367 46.3403 42.5933 46.3351 42.6501 46.3246C43.1511 46.2319 43.4823 45.7504 43.3895 45.2492L42.907 42.6443L50.0965 39.913C50.7627 39.6601 51.5007 39.7143 52.1217 40.0619C52.7416 40.4088 53.1711 41.0068 53.3 41.7023L55.167 51.7816C55.2957 52.4767 55.109 53.187 54.6548 53.7307ZM57.9475 46.5071C57.5169 46.5862 57.2013 46.9568 57.1916 47.3945C57.182 47.8322 57.4813 48.2163 57.9079 48.3142L64.7788 49.8901L64.6071 51.0417L56.6418 49.6103L55.3967 42.8878L62.3346 38.7923L62.9125 39.8157L57.0607 43.7275C56.6968 43.9707 56.5539 44.4361 56.7185 44.8417C56.883 45.2472 57.31 45.4815 57.7404 45.4024L66.9327 43.7138L67.1374 44.8188L57.9475 46.5071Z"
    />
</symbol>

<symbol
    id="Продукты"
    width="63"
    height="57"
    viewBox="0 0 63 57"
    xmlns="http://www.w3.org/2000/svg"
  >
<path
      d="M62.9703 44.5803L62.73 43.2832C62.5768 42.4543 61.8531 41.8528 61.0091 41.8528C60.9032 41.8528 60.7964 41.8625 60.6913 41.8818L55.799 42.7805L58.0145 41.2994C58.5952 40.9113 58.8886 40.2171 58.762 39.5284C58.7268 39.3398 58.6609 39.1588 58.5654 38.9893L57.8949 37.8021C57.6652 37.3942 57.2734 37.0911 56.8212 36.971C56.5997 36.9119 56.3682 36.8988 56.1423 36.9282C56.389 35.5666 56.5162 34.1759 56.5162 32.7602C56.5162 32.1321 56.1384 31.5915 55.5989 31.3515C56.3039 29.6746 56.352 27.7548 55.6551 25.9967C55.5986 25.8538 55.5147 25.7262 55.4061 25.6174C55.2983 25.5096 55.1722 25.4263 55.0291 25.3688C54.1939 25.0362 53.3162 24.8677 52.4203 24.8677C52.3058 24.8677 52.1917 24.8706 52.078 24.876C51.9502 22.3003 49.8184 20.2441 47.216 20.2441C46.8733 20.2441 46.5391 20.2805 46.2164 20.3484C46.4405 19.0072 46.3085 17.6041 45.7862 16.2868C45.7301 16.142 45.6458 16.012 45.5312 15.8956C45.421 15.7854 45.2917 15.7003 45.1482 15.6434C44.2486 15.2851 43.3031 15.1035 42.3379 15.1035C40.884 15.1035 39.4932 15.5122 38.2925 16.2721C37.8539 15.0014 37.1305 13.8085 36.1198 12.7955C35.8237 12.4989 35.43 12.3355 35.011 12.3355C34.592 12.3355 34.1983 12.4989 33.9019 12.7957L29.4337 17.2741C28.6068 16.5366 27.5187 16.0957 26.3377 16.0957C26.0697 16.0957 25.7991 16.1192 25.5335 16.1655C24.5709 16.3331 23.6851 16.8042 23.006 17.4942C22.1352 17.074 21.1376 16.9307 20.179 17.0975C19.9681 17.1342 19.7635 17.1859 19.5649 17.2489V13.7979C19.5649 11.4214 17.6548 9.48454 15.2921 9.44369V7.48651C16.0153 7.36137 16.5676 6.73101 16.5676 5.97255V1.53808C16.5676 0.690044 15.8777 0 15.0295 0H7.52478C6.67662 0 5.9867 0.690044 5.9867 1.53808V5.97255C5.9867 6.73101 6.53893 7.36137 7.2622 7.48651V9.44344C4.89946 9.48417 2.98954 11.421 2.98954 13.7977V40.732C1.14704 42.396 0 44.7178 0 47.2853C0 52.3358 4.43275 56.4448 9.88149 56.4448L46.8184 56.434C48.0791 56.4335 49.2648 55.8794 50.0713 54.914C50.8568 53.9742 51.1906 52.7534 50.9983 51.5495L58.3758 52.8754C58.4779 52.8937 58.5825 52.9031 58.6862 52.9031C59.0541 52.9031 59.4067 52.7901 59.7052 52.5767C60.089 52.3026 60.3487 51.8782 60.418 51.4127L60.6178 50.0719C60.6466 49.8798 60.6434 49.6864 60.6083 49.4968C60.4814 48.8112 59.9593 48.2672 59.2782 48.1111L56.6779 47.5146L61.5654 46.6167C62.0263 46.5321 62.4262 46.2733 62.6915 45.8881C62.9563 45.5038 63.0552 45.0394 62.9703 44.5803ZM52.4203 26.7131C52.9759 26.7131 53.5221 26.8011 54.0473 26.9745C54.5166 28.4035 54.3409 29.9449 53.606 31.2182H51.12L51.9133 30.4231C52.2733 30.0623 52.2726 29.478 51.9117 29.1179C51.5508 28.7579 50.9664 28.7585 50.6066 29.1194L50.1869 29.5401C49.9902 28.8923 49.6466 28.3122 49.1951 27.8364C50.111 27.1091 51.2354 26.7131 52.4203 26.7131ZM47.216 22.0895C48.8826 22.0895 50.2385 23.4494 50.2385 25.121C50.2385 25.152 50.237 25.1827 50.2361 25.2134C49.2633 25.5298 48.3667 26.0583 47.602 26.776C47.4803 26.7299 47.3569 26.687 47.2301 26.652C46.9602 25.1936 45.9774 24.0247 44.6791 23.4787C45.2179 22.644 46.1529 22.0895 47.216 22.0895ZM42.3378 16.9489C42.9646 16.9489 43.5806 17.0503 44.1741 17.2509C44.6512 18.6693 44.5537 20.193 43.9459 21.5128C43.4462 21.968 43.0408 22.5254 42.7637 23.1519C42.5989 23.1615 42.4341 23.1797 42.2714 23.208C41.5482 23.3339 40.8739 23.6477 40.3096 24.1027C40.1172 23.7508 39.8815 23.4261 39.6116 23.1337L41.7279 21.0126C42.0879 20.6519 42.0872 20.0675 41.7263 19.7076C41.3655 19.3476 40.7811 19.3482 40.4211 19.7091L38.1081 22.0274C37.6679 21.8193 37.1922 21.6746 36.6923 21.6069C36.9083 20.5057 37.4426 19.468 38.2693 18.6394C39.3569 17.5492 40.8018 16.9489 42.3378 16.9489ZM35.2663 31.2182H34.4664C34.3317 30.8754 33.9986 30.6324 33.6079 30.6324C33.2172 30.6324 32.8841 30.8755 32.7494 31.2182H31.8084C32.0269 30.8624 31.9827 30.3909 31.6742 30.083C31.3135 29.723 30.7291 29.7236 30.3691 30.0844L29.4993 30.956C29.4211 31.0343 29.3611 31.1235 29.3169 31.2182H27.4386C26.7352 30.1387 26.3058 28.8646 26.255 27.4939H40.8958C40.845 28.8646 40.4157 30.1387 39.7122 31.2182H37.7576C37.7136 31.1235 37.6533 31.0341 37.5753 30.9559L36.7056 30.0842C36.3454 29.7236 35.7613 29.7226 35.4006 30.0828C35.0918 30.3906 35.0477 30.8622 35.2663 31.2182ZM33.12 25.6482C33.4679 24.359 34.6438 23.4077 36.0375 23.4077C37.4312 23.4077 38.6072 24.3591 38.955 25.6482H33.12ZM35.0072 14.3007C35.885 15.2494 36.4654 16.3758 36.75 17.5597C36.2789 18.0717 35.8875 18.6375 35.5787 19.2395C35.4386 19.1536 35.2743 19.1033 35.098 19.1033H33.8683C33.3586 19.1033 32.9454 19.5165 32.9454 20.0262C32.9454 20.5358 33.3586 20.949 33.8683 20.949H34.947C34.8864 21.2038 34.8392 21.4618 34.805 21.7216C34.4386 21.8179 34.0886 21.9549 33.7611 22.1294C33.146 21.0679 32.1274 20.2768 30.9206 19.9595C30.9202 19.9569 30.9197 19.9543 30.9192 19.9517C30.8469 19.5341 30.7206 19.1379 30.5485 18.7696L35.0072 14.3007ZM18.3248 22.628C18.2707 22.4766 18.2297 22.3214 18.2027 22.1656C17.9381 20.6397 18.9667 19.1818 20.4953 18.9157C20.6565 18.8876 20.8203 18.8733 20.982 18.8733C21.59 18.8733 22.171 19.0673 22.6621 19.4341C22.8652 19.5859 23.1221 19.6473 23.3722 19.604C23.6222 19.5606 23.8433 19.4162 23.9836 19.2047C24.4168 18.5512 25.0797 18.1176 25.85 17.9835C26.0115 17.9553 26.1757 17.9412 26.3377 17.9412C27.705 17.9412 28.8671 18.9194 29.1006 20.2673C29.1274 20.4218 29.1412 20.5827 29.1414 20.7457C29.1423 21.2234 29.5076 21.6216 29.9836 21.6634C31.0153 21.7541 31.8936 22.4034 32.3008 23.3182C31.7557 23.9724 31.3778 24.7712 31.2343 25.6482H25.9714C25.317 25.6482 24.7556 26.0521 24.5214 26.6238C23.3636 25.8352 21.999 25.4103 20.5689 25.4103C19.673 25.4103 18.7953 25.579 17.9596 25.9117C17.8179 25.9683 17.6911 26.0519 17.5831 26.1599C17.4736 26.2694 17.3895 26.3978 17.3344 26.5385C17.122 27.0741 16.9804 27.6248 16.9039 28.1789C16.5731 27.8023 16.3401 27.3341 16.249 26.8087C16.032 25.5566 16.6874 24.3099 17.8425 23.7769C18.2766 23.5765 18.4859 23.078 18.3248 22.628ZM21.0759 30.9659L21.3276 31.2182H19.1112C18.6136 30.0638 18.538 28.7498 18.942 27.5174C19.4679 27.3437 20.0139 27.2559 20.5689 27.2559C21.9595 27.2559 23.2676 27.7994 24.2521 28.7861C24.383 28.9174 24.5049 29.0549 24.6195 29.1971C24.7759 29.9051 25.0162 30.5815 25.3258 31.2181H23.935L22.3825 29.6621C22.0224 29.3014 21.438 29.3004 21.0775 29.6606C20.7166 30.0207 20.7158 30.6051 21.0759 30.9659ZM17.1458 31.2182H13.8559C14.0026 30.3243 14.5403 29.5623 15.2867 29.1129C15.7285 29.7049 16.3052 30.1835 16.9697 30.5078C17.0167 30.7472 17.0744 30.9846 17.1458 31.2182ZM7.8324 1.8457H14.7219V5.66493H7.8324V1.8457ZM13.4464 7.51063V9.4416H9.10802V7.51063H13.4464ZM4.83535 17.5403H10.8281C11.3379 17.5403 11.7509 17.1271 11.7509 16.6174C11.7509 16.1078 11.3379 15.6946 10.8281 15.6946H4.83535V13.7977C4.83535 12.4134 5.95803 11.2873 7.33799 11.2873H15.2164C16.5965 11.2873 17.7192 12.4134 17.7192 13.7977V15.6946H15.996C15.4862 15.6946 15.0732 16.1078 15.0732 16.6174C15.0732 17.1271 15.4862 17.5403 15.996 17.5403H17.7192V18.3594C16.6618 19.396 16.1127 20.9163 16.3839 22.4801C16.3844 22.4832 16.385 22.4864 16.3855 22.4896C14.905 23.5053 14.1161 25.3111 14.4303 27.124C14.4486 27.2298 14.4716 27.3339 14.4967 27.4369C14.0357 27.6911 13.6216 28.0194 13.2667 28.4035H4.83535V17.5403ZM4.83523 30.2491H12.1951C12.0972 30.5602 12.028 30.8839 11.9943 31.2182H11.8388C10.9894 31.2182 10.2982 31.9099 10.2982 32.76C10.2982 34.2254 10.4345 35.6639 10.6984 37.0713C10.4332 37.05 10.1613 37.0386 9.88469 37.0386C8.76865 37.0386 7.70529 37.2156 6.89084 37.5373C5.645 38.0292 5.30059 38.7277 5.22541 39.2111C5.09338 39.2768 4.96369 39.3462 4.83523 39.4172V30.2491ZM16.5211 41.586C16.8534 41.8519 17.0566 42.0779 17.1743 42.241C17.1632 42.2411 17.1517 42.2412 17.14 42.2412C16.6177 42.2412 15.6792 42.0307 14.612 41.4399C14.2147 41.2198 13.8486 40.9711 13.5533 40.721C13.209 40.4292 12.7042 40.4295 12.3601 40.7211C12.0648 40.9715 11.6989 41.2201 11.3019 41.4397C10.2345 42.0307 9.29603 42.2412 8.77382 42.2412C8.76189 42.2412 8.75044 42.2411 8.73925 42.241C8.85688 42.0779 9.06003 41.8518 9.3925 41.5857C9.68301 41.3532 9.80544 40.9688 9.70295 40.6111C9.60033 40.2533 9.29296 39.992 8.9232 39.9487C8.02262 39.8432 7.45317 39.6139 7.18652 39.4471C7.5206 39.239 8.36519 38.8843 9.88505 38.8843C11.1438 38.8843 12.0638 39.1489 12.5051 39.3967C12.7858 39.5542 13.1279 39.5542 13.4086 39.3969C13.8501 39.1491 14.7702 38.8844 16.029 38.8844C17.549 38.8844 18.3935 39.2393 18.7274 39.4472C18.4609 39.6142 17.8913 39.8433 16.9905 39.9489C16.6207 39.9923 16.3132 40.2534 16.2107 40.6113C16.1079 40.9692 16.2303 41.3536 16.5211 41.586ZM14.675 52.8184L14.7068 52.9894C14.8165 53.5821 15.048 54.1261 15.3713 54.5991H9.88149C5.45059 54.5991 1.8457 51.3182 1.8457 47.2853C1.8457 44.5291 3.52996 42.1253 6.01008 40.8788C6.29493 41.0915 6.65004 41.2748 7.07135 41.4227C6.90426 41.708 6.78785 42.0149 6.76042 42.335C6.72399 42.7605 6.85418 43.1646 7.12734 43.4729C7.48823 43.8804 8.04219 44.087 8.77382 44.087C9.74884 44.087 11.0282 43.701 12.1959 43.0545C12.4647 42.9058 12.7189 42.7487 12.9569 42.5845C13.1948 42.7485 13.449 42.9057 13.7179 43.0547C14.8857 43.701 16.165 44.0869 17.14 44.087H17.1401C17.8715 44.087 18.4255 43.8804 18.7862 43.473C19.0595 43.1647 19.1898 42.7606 19.1533 42.335C19.1258 42.0149 19.0094 41.708 18.8423 41.4227C19.2637 41.2747 19.6189 41.0913 19.9037 40.8788C21.8706 41.8674 23.3362 43.584 23.8588 45.627L17.3318 48.1065C15.4213 48.8324 14.3039 50.814 14.675 52.8184ZM48.6548 53.7307C48.1997 54.2755 47.53 54.5881 46.8176 54.5883L45.8489 54.5887L45.2438 51.3212C45.1509 50.82 44.6697 50.4886 44.1682 50.5818C43.6672 50.6746 43.3361 51.156 43.4289 51.6572L43.972 54.5893L40.7966 54.5905L40.3875 52.381C40.2946 51.8798 39.8133 51.5488 39.312 51.6416C38.8109 51.7344 38.4798 52.2158 38.5726 52.717L38.9196 54.5913L31.5337 54.5941L30.9778 51.5932C30.8848 51.0921 30.4037 50.7611 29.9022 50.854C29.4011 50.9467 29.0701 51.4283 29.1629 51.9295L29.6566 54.5948L18.8724 54.599C18.8721 54.599 18.8719 54.599 18.8716 54.599C17.7184 54.599 16.7301 53.7808 16.5212 52.6529L16.4894 52.4819C16.2809 51.3553 16.9106 50.2408 17.9869 49.8318L21.614 48.4539L21.8842 49.9123C21.9665 50.3566 22.3543 50.6672 22.7904 50.6672C22.8463 50.6672 22.9029 50.662 22.9597 50.6516C23.4608 50.5587 23.7918 50.0772 23.6989 49.576L23.3675 47.7878L28.7514 45.7425C29.2278 45.5615 29.4674 45.0285 29.2864 44.552C29.1054 44.0755 28.5717 43.836 28.096 44.017L25.5907 44.9688C24.8879 42.4804 23.0823 40.4018 20.6879 39.2109C20.6127 38.7276 20.2683 38.0291 19.0226 37.5371C18.2082 37.2155 17.1448 37.0384 16.0288 37.0384C15.2607 37.0384 14.5272 37.1232 13.8798 37.2776V36.7202C13.8798 36.2106 13.4667 35.7974 12.9569 35.7974C12.7415 35.7974 12.5438 35.8717 12.3867 35.9955C12.2411 35.0329 12.1597 34.0552 12.1462 33.0637H42.2049C42.7147 33.0637 43.1278 32.6505 43.1278 32.1408C43.1278 31.6312 42.7147 31.218 42.2049 31.218H41.8273C42.415 30.0077 42.7469 28.6507 42.7469 27.2166C42.7469 26.4024 42.124 25.7317 41.3301 25.6555C41.6757 25.3296 42.1071 25.1098 42.588 25.026C42.7288 25.0016 42.8718 24.9891 43.0131 24.9891C44.2045 24.9891 45.217 25.8415 45.4204 27.0156C45.4439 27.1515 45.4559 27.2918 45.456 27.4327C45.4567 27.9106 45.8221 28.309 46.2982 28.3509C47.401 28.4477 48.3033 29.2772 48.4925 30.3679C48.5427 30.6579 48.5364 30.9441 48.4861 31.218H47.4959C46.9861 31.218 46.5731 31.6312 46.5731 32.1408C46.5731 32.6505 46.9861 33.0637 47.4959 33.0637H54.6685C54.6456 34.7565 54.4276 36.4102 54.0209 38.0146L49.0196 40.9669C48.7137 39.9023 48.0027 38.9993 47.0232 38.451C45.9245 37.8362 44.6188 37.7401 43.4413 38.1873L33.1409 42.1004C32.6644 42.2814 32.4249 42.8145 32.6059 43.2909C32.7869 43.7675 33.3205 44.0067 33.7963 43.8259L35.1532 43.3105L35.5746 45.5852C35.6569 46.0296 36.0447 46.3403 36.4809 46.3403C36.5367 46.3403 36.5933 46.3351 36.6501 46.3246C37.1511 46.2319 37.4823 45.7504 37.3895 45.2492L36.907 42.6443L44.0965 39.913C44.7627 39.6601 45.5007 39.7143 46.1217 40.0619C46.7416 40.4088 47.1711 41.0068 47.3 41.7023L49.167 51.7816C49.2957 52.4767 49.109 53.187 48.6548 53.7307ZM51.9475 46.5071C51.5169 46.5862 51.2013 46.9568 51.1916 47.3945C51.182 47.8322 51.4813 48.2163 51.9079 48.3142L58.7788 49.8901L58.6071 51.0417L50.6418 49.6103L49.3967 42.8878L56.3346 38.7923L56.9125 39.8157L51.0607 43.7275C50.6968 43.9707 50.5539 44.4361 50.7185 44.8417C50.883 45.2472 51.31 45.4815 51.7404 45.4024L60.9327 43.7138L61.1374 44.8188L51.9475 46.5071Z"
    />
</symbol>

<symbol id="Прочее" viewBox="0 0 56 56">
<path
      d="M55.9927 39.084C54.3202 25.6665 41.8004 23.6786 38.2667 23.3855V11.1998C38.2667 11.116 38.1491 2.7998 28 2.7998C17.8509 2.7998 17.7333 11.116 17.7333 11.1998V23.3855C14.1996 23.6786 1.68483 25.6665 0.00729167 39.084C0.00729167 39.1027 0 39.1775 0 39.1998V42.9331C0 43.4486 0.417904 43.8665 0.933333 43.8665H5.6V45.7331H2.8C2.28457 45.7331 1.86667 46.151 1.86667 46.6665C1.86667 48.926 3.23203 53.1998 8.4 53.1998C13.568 53.1998 14.9333 48.926 14.9333 46.6665C14.9333 46.151 14.5154 45.7331 14 45.7331H11.2V43.8665H25.2V45.7331H22.4C21.8846 45.7331 21.4667 46.151 21.4667 46.6665C21.4667 48.926 22.832 53.1998 28 53.1998C33.168 53.1998 34.5333 48.926 34.5333 46.6665C34.5333 46.151 34.1154 45.7331 33.6 45.7331H30.8V43.8665H44.8V45.7331H42C41.4846 45.7331 41.0667 46.151 41.0667 46.6665C41.0667 48.926 42.432 53.1998 47.6 53.1998C52.768 53.1998 54.1333 48.926 54.1333 46.6665C54.1333 46.151 53.7154 45.7331 53.2 45.7331H50.4V43.8665H55.0667C55.5821 43.8665 56 43.4486 56 42.9331V39.1998C56 39.1784 56 39.1064 55.9927 39.084ZM19.6 11.1998C19.6 10.9327 19.6934 4.66647 28 4.66647C36.2487 4.66647 36.4 10.9364 36.4 11.1998V23.3331H34.5333V17.7331H32.6667V23.3331H19.6V11.1998ZM10.8268 27.0104C13.3041 25.9226 15.9633 25.3083 18.6667 25.1998H37.3333C40.0367 25.3083 42.6959 25.9226 45.1732 27.0104C49.88 28.9582 53.2223 33.2293 53.9811 38.2665H2.01888C2.77767 33.2293 6.11999 28.9582 10.8268 27.0104ZM8.4 51.3331C6.12591 51.504 4.1166 49.8625 3.83132 47.5998H12.9641C12.6679 49.8548 10.6686 51.4899 8.4 51.3331ZM9.33333 45.7331H7.46667V43.8665H9.33333V45.7331ZM28 51.3331C25.7259 51.504 23.7166 49.8625 23.4313 47.5998H32.5641C32.2679 49.8548 30.2686 51.4899 28 51.3331ZM28.9333 45.7331H27.0667V43.8665H28.9333V45.7331ZM47.6 51.3331C45.3241 51.5068 43.312 49.8643 43.0268 47.5998H52.1641C51.8679 49.8548 49.8686 51.4899 47.6 51.3331ZM48.5333 45.7331H46.6667V43.8665H48.5333V45.7331ZM54.1333 41.9998H1.86667V40.1331H54.1333V41.9998Z"
    />
<path
      d="M28 27.0669C25.4228 27.0669 23.3333 29.1564 23.3333 31.7336C23.3333 34.3107 25.4228 36.4002 28 36.4002C30.5771 36.4002 32.6666 34.3107 32.6666 31.7336C32.6635 29.1573 30.5762 27.0701 28 27.0669ZM28 34.5336C26.4537 34.5336 25.2 33.2798 25.2 31.7336C25.2 30.1873 26.4537 28.9336 28 28.9336C29.5463 28.9336 30.8 30.1873 30.8 31.7336C30.8 33.2798 29.5463 34.5336 28 34.5336Z"
    />
<path
      d="M29.8667 31.7334C29.8667 32.7642 29.0309 33.6 28 33.6C26.9692 33.6 26.1334 32.7642 26.1334 31.7334C26.1334 30.7025 26.9692 29.8667 28 29.8667C29.0309 29.8667 29.8667 30.7025 29.8667 31.7334Z"
    />
<path d="M32.6667 14H34.5334V15.8667H32.6667V14Z" />
<path
      d="M32.6667 11.1999V12.1332H34.5333V11.1999C34.5333 10.7218 34.3465 6.5332 28 6.5332V8.39987C32.3308 8.39987 32.6667 10.5464 32.6667 11.1999Z"
    />
<path d="M19.6 30.7998H21.4666V32.6665H19.6V30.7998Z" />
<path d="M15.8666 30.7998H17.7333V32.6665H15.8666V30.7998Z" />
<path d="M34.5333 30.7998H36.4V32.6665H34.5333V30.7998Z" />
<path d="M38.2667 30.7998H40.1333V32.6665H38.2667V30.7998Z" />
</symbol>

<symbol id="icon-income" viewBox="0 0 56 56">
<path
      d="M20.4233 33.8555C20.4233 33.4024 20.0562 33.0352 19.603 33.0352H11.6481C11.1949 33.0352 10.8278 33.4024 10.8278 33.8555V39.1588C10.8278 39.6119 11.1949 39.9792 11.6481 39.9792H19.603C20.0562 39.9792 20.4233 39.6119 20.4233 39.1588V33.8555ZM18.7827 38.3384H12.4684V34.6757H18.7827V38.3384Z"
    />
<path
      d="M39.9326 38.2119H44.352C44.8051 38.2119 45.1723 37.8446 45.1723 37.3916C45.1723 36.9386 44.8051 36.5713 44.352 36.5713H39.9326C39.4794 36.5713 39.1122 36.9386 39.1122 37.3916C39.1122 37.8446 39.4794 38.2119 39.9326 38.2119Z"
    />
<path
      d="M39.9326 34.6758H44.352C44.8051 34.6758 45.1723 34.3085 45.1723 33.8555C45.1723 33.4024 44.8051 33.0352 44.352 33.0352H39.9326C39.4794 33.0352 39.1122 33.4024 39.1122 33.8555C39.1122 34.3085 39.4794 34.6758 39.9326 34.6758Z"
    />
<path
      d="M47.8875 42.7038C47.4344 42.7038 47.0672 43.0711 47.0672 43.5241V54.0755C47.0672 54.2325 46.9396 54.3601 46.7826 54.3601H9.21721C9.06026 54.3601 8.93262 54.2325 8.93262 54.0755V35.9219C8.93262 35.4688 8.56545 35.1016 8.1123 35.1016C7.65916 35.1016 7.29199 35.4688 7.29199 35.9219V54.0754C7.29199 55.137 8.15562 56.0006 9.21721 56.0006H46.7826C47.8441 56.0006 48.7078 55.137 48.7078 54.0754V43.524C48.7078 43.0711 48.3406 42.7038 47.8875 42.7038Z"
    />
<path
      d="M46.7827 27.8426H33.2397V23.6819C37.4775 21.702 40.4213 17.3994 40.4213 12.4214C40.4213 5.57222 34.8491 0 28 0C25.6229 0 23.3124 0.67375 21.3182 1.94852C19.3777 3.18894 17.8216 4.93784 16.8182 7.00591C16.6205 7.41355 16.7907 7.90431 17.1983 8.10206C17.6062 8.2997 18.0966 8.12952 18.2944 7.72209C20.1142 3.97086 23.8332 1.64062 28 1.64062C33.9446 1.64062 38.7807 6.47686 38.7807 12.4214C38.7807 18.3659 33.9446 23.2022 28 23.2022C22.0553 23.2022 17.2192 18.3659 17.2192 12.4214C17.2192 12.0025 17.2435 11.5804 17.2914 11.1669C17.3436 10.7168 17.0209 10.3097 16.5709 10.2576C16.1204 10.205 15.7138 10.528 15.6617 10.9781C15.6066 11.4541 15.5786 11.9397 15.5786 12.4215C15.5786 17.3995 18.5224 21.7021 22.7602 23.682V27.8428H9.21721C8.15573 27.8428 7.29199 28.7065 7.29199 29.768V32.0744C7.29199 32.5275 7.65916 32.8948 8.1123 32.8948C8.56545 32.8948 8.93262 32.5275 8.93262 32.0744V29.768C8.93262 29.6111 9.06026 29.4835 9.21721 29.4835H19.8936L27.3825 38.0423C27.5384 38.2202 27.7633 38.3224 28 38.3224C28.2366 38.3224 28.4615 38.2202 28.6174 38.0423L36.1063 29.4835H46.7827C46.9397 29.4835 47.0673 29.6111 47.0673 29.768V39.6737C47.0673 40.1267 47.4345 40.494 47.8876 40.494C48.3408 40.494 48.7079 40.1267 48.7079 39.6737V29.768C48.7078 28.7062 47.8442 27.8426 46.7827 27.8426ZM28 36.2561L22.0737 29.4832H23.5804C24.0336 29.4832 24.4008 29.116 24.4008 28.6629V24.3105C25.5406 24.6562 26.7487 24.8429 27.9998 24.8429C29.251 24.8429 30.4593 24.6562 31.5989 24.3105V28.6629C31.5989 29.116 31.9661 29.4832 32.4193 29.4832H33.926L28 36.2561Z"
    />
<path
      d="M11.6479 48.0449H13.8577C14.3108 48.0449 14.678 47.6776 14.678 47.2246C14.678 46.7716 14.3108 46.4043 13.8577 46.4043H11.6479C11.1948 46.4043 10.8276 46.7716 10.8276 47.2246C10.8276 47.6776 11.1949 48.0449 11.6479 48.0449Z"
    />
<path
      d="M19.603 46.4043H17.3933C16.9402 46.4043 16.573 46.7716 16.573 47.2246C16.573 47.6776 16.9402 48.0449 17.3933 48.0449H19.603C20.0562 48.0449 20.4233 47.6776 20.4233 47.2246C20.4233 46.7716 20.056 46.4043 19.603 46.4043Z"
    />
<path
      d="M25.3483 48.0449C25.8014 48.0449 26.1686 47.6776 26.1686 47.2246C26.1686 46.7716 25.8014 46.4043 25.3483 46.4043H23.1385C22.6854 46.4043 22.3182 46.7716 22.3182 47.2246C22.3182 47.6776 22.6854 48.0449 23.1385 48.0449H25.3483Z"
    />
<path
      d="M31.0935 48.0449C31.5466 48.0449 31.9138 47.6776 31.9138 47.2246C31.9138 46.7716 31.5466 46.4043 31.0935 46.4043H28.8838C28.4306 46.4043 28.0635 46.7716 28.0635 47.2246C28.0635 47.6776 28.4306 48.0449 28.8838 48.0449H31.0935Z"
    />
<path
      d="M11.6479 52.4648H20.4869C20.94 52.4648 21.3072 52.0976 21.3072 51.6445C21.3072 51.1915 20.94 50.8242 20.4869 50.8242H11.6479C11.1948 50.8242 10.8276 51.1915 10.8276 51.6445C10.8276 52.0976 11.1949 52.4648 11.6479 52.4648Z"
    />
<path
      d="M34.6927 49.4344C34.6927 51.1051 36.0521 52.4644 37.7228 52.4644C38.5936 52.4644 39.3792 52.0946 39.9325 51.5045C40.4857 52.0946 41.2713 52.4644 42.1422 52.4644C43.8129 52.4644 45.1722 51.1051 45.1722 49.4344C45.1722 47.7636 43.8129 46.4043 42.1422 46.4043C41.2713 46.4043 40.4857 46.7741 39.9325 47.3643C39.3792 46.7741 38.5936 46.4043 37.7228 46.4043C36.0521 46.4043 34.6927 47.7636 34.6927 49.4344ZM42.1423 48.0449C42.9085 48.0449 43.5317 48.6682 43.5317 49.4344C43.5317 50.2005 42.9085 50.8238 42.1423 50.8238C41.3761 50.8238 40.7529 50.2005 40.7529 49.4344C40.7529 48.6682 41.3761 48.0449 42.1423 48.0449ZM39.1123 49.4344C39.1123 50.2005 38.489 50.8238 37.7229 50.8238C36.9567 50.8238 36.3335 50.2005 36.3335 49.4344C36.3335 48.6682 36.9567 48.0449 37.7229 48.0449C38.489 48.0449 39.1123 48.6682 39.1123 49.4344Z"
    />
<path
      d="M25.2824 16.7146C24.9036 16.4666 24.3951 16.573 24.1469 16.952C23.8988 17.3311 24.0051 17.8396 24.3843 18.0875C25.445 18.7814 26.1688 18.9869 27.1055 19.0386V19.9427C27.1055 20.3958 27.4727 20.763 27.9258 20.763C28.3789 20.763 28.7461 20.3958 28.7461 19.9427V18.9737C30.6055 18.612 31.6915 17.0803 31.932 15.6495C32.2408 13.8127 31.2798 12.2155 29.4838 11.5807C29.2415 11.495 28.9934 11.405 28.7461 11.3114V7.37697C29.372 7.5243 29.745 7.84116 29.7771 7.86927C30.1103 8.17114 30.6253 8.14861 30.9307 7.81731C31.2379 7.48427 31.2169 6.96528 30.8839 6.65816C30.8367 6.61484 30.0437 5.90073 28.7461 5.70802V4.90039C28.7461 4.44736 28.3789 4.08008 27.9258 4.08008C27.4727 4.08008 27.1055 4.44736 27.1055 4.90039V5.77091C26.9806 5.79825 26.8538 5.82986 26.7242 5.86891C25.5418 6.22514 24.6583 7.23708 24.4185 8.50998C24.1998 9.67023 24.5713 10.789 25.388 11.4295C25.8225 11.7703 26.3636 12.0825 27.1055 12.4124V17.3958C26.4586 17.3497 26.0145 17.1935 25.2824 16.7146ZM26.4006 10.1387C26.0676 9.87761 25.9259 9.36989 26.0307 8.81383C26.1251 8.31311 26.4572 7.711 27.1055 7.4718V10.588C26.84 10.4446 26.5998 10.295 26.4006 10.1387ZM28.9371 13.1277C30.4745 13.6711 30.3796 14.9873 30.314 15.3778C30.1856 16.1422 29.6516 16.9525 28.7461 17.2714V13.0593C28.8096 13.0821 28.8718 13.1046 28.9371 13.1277Z"
    />
</symbol>

<symbol id="icon-salary" viewBox="0 0 56 56">
<path
      d="M26.973 22.6616C26.7822 22.5941 26.5878 22.524 26.3931 22.4518V18.922C27.037 19.1772 27.4893 19.5348 27.5071 19.549C27.9725 19.9306 28.6594 19.8644 29.0433 19.4003C29.4284 18.9348 29.3632 18.2455 28.8977 17.8603C28.8337 17.8074 27.8175 16.9818 26.3932 16.6337V16.0977C26.3932 15.4936 25.9034 15.0039 25.2995 15.0039C24.6955 15.0039 24.2057 15.4936 24.2057 16.0977V16.5831C24.0899 16.608 23.9736 16.6361 23.8565 16.6713C22.5991 17.0501 21.6914 18.1099 21.4282 19.5064C21.1726 20.8632 21.6147 22.2163 22.5546 22.9534C22.9835 23.2897 23.5062 23.5982 24.2058 23.9187V28.5446C23.7105 28.4751 23.3391 28.307 22.7474 27.9199C22.242 27.5891 21.5642 27.7308 21.2333 28.2364C20.9027 28.7419 21.0442 29.4197 21.5499 29.7505C22.5888 30.4301 23.3214 30.6688 24.2058 30.745V31.4251C24.2058 32.0292 24.6956 32.5189 25.2996 32.5189C25.9035 32.5189 26.3933 32.0292 26.3933 31.4251V30.6403C28.2125 30.1792 29.3785 28.6253 29.6361 27.0933C29.9672 25.1227 28.897 23.3418 26.973 22.6616ZM24.2057 21.4442C24.0973 21.3748 23.9962 21.3042 23.9045 21.2323C23.6093 21.0007 23.475 20.4576 23.5779 19.9116C23.6124 19.7285 23.752 19.1848 24.2057 18.8962V21.4442ZM27.4787 26.7309C27.3787 27.3251 27.0103 27.9497 26.3931 28.3025V24.7821C27.5802 25.2813 27.5506 26.3026 27.4787 26.7309Z"
    />
<path
      d="M51.7903 23.3685L44.8438 18.7812V1.09375C44.8438 0.489672 44.354 0 43.75 0H17.5C16.896 0 16.4062 0.489672 16.4062 1.09375V5.25H12.25C11.646 5.25 11.1562 5.73967 11.1562 6.34375V18.7813L4.20973 23.3686C3.90327 23.571 3.71875 23.9139 3.71875 24.2812V54.9062C3.71875 55.5103 4.20853 56 4.8125 56H23.0781C23.6821 56 24.1719 55.5103 24.1719 54.9062C24.1719 54.3022 23.6821 53.8125 23.0781 53.8125H7.45314L23.3994 37.8663L27.3973 40.5065C27.58 40.6271 27.79 40.6875 28 40.6875C28.21 40.6875 28.42 40.6271 28.6028 40.5065L32.6007 37.8663L48.547 53.8125H32.9219C32.3179 53.8125 31.8281 54.3022 31.8281 54.9062C31.8281 55.5103 32.3179 56 32.9219 56H51.1875C51.7915 56 52.2812 55.5103 52.2812 54.9062V24.2812C52.2812 23.9139 52.0967 23.571 51.7903 23.3685ZM49.2027 24.2812L44.8438 27.1598V21.4027L49.2027 24.2812ZM18.5938 2.1875H42.6562V28.6044L39.5938 30.6269V6.34375C39.5938 5.73967 39.104 5.25 38.5 5.25H18.5938V2.1875ZM11.1562 21.4027V27.1598L6.79733 24.2812L11.1562 21.4027ZM5.90625 52.2657V26.3143L21.536 36.6359L5.90625 52.2657ZM28 38.283L13.3438 28.6043V7.4375H37.4062V32.0714L28 38.283ZM50.0938 26.3143V52.2657L34.464 36.6358L50.0938 26.3143Z"
    />
<path
      d="M28 53.8125C27.7123 53.8125 27.4302 53.9295 27.2267 54.133C27.0233 54.3364 26.9062 54.6186 26.9062 54.9062C26.9062 55.1939 27.0232 55.4761 27.2267 55.6795C27.4303 55.883 27.7123 56 28 56C28.2877 56 28.5698 55.883 28.7732 55.6795C28.9766 55.4761 29.0938 55.1939 29.0938 54.9062C29.0938 54.6186 28.9767 54.3364 28.7732 54.133C28.5698 53.9295 28.2877 53.8125 28 53.8125Z"
    />
</symbol>
<symbol id="icon-balance">
<path d="M0 4.2h3V14H0V4.2ZM5.6 0h2.8v14H5.6V0Zm5.6 8H14v6h-2.8V8Z" />
</symbol>
<symbol id="icon-back-arrow">
<path d="M18 5H3.83L7.41 1.41L6 0L0 6L6 12L7.41 10.59L3.83 7H18V5Z" />
</symbol>

<!-- REPORTLIST -->

<symbol id="arrow-next" width="7" height="12" viewBox="0 0 7 12" fill="none" xmlns="http://www.w3.org/2000/svg"> 
<path d="M1 1L5 6L1 11" stroke="#FF751D" stroke-width="2"/>
</symbol>

<symbol id="arrow-back" idth="7" height="12" viewBox="0 0 7 12" fill="none" xmlns="http://www.w3.org/2000/svg">
<path d="M6 1L2 6L6 11" stroke="#FF751D" stroke-width="2"/>
</symbol>

<symbol id="icon-logo">
  <rect width="33" height="26" rx="8" />
</symbol>

<symbol id="icon-logout">
<path
      d="M9.99998 14H1.99998V1.99998H9.99998V2.99998H12V0H0V16H12V13H10V14H9.99998Z"
    />
<path
      d="M12.293 4.29297L10.8789 5.70702L12.1719 6.99998H7V8.99999H12.1719L10.8789 10.293L12.293 11.707L16 7.99997L12.293 4.29297Z"
    />
</symbol>

<symbol id="icon-calculator">
<path
      d="M17.0312 0H2.96875C1.99949 0 1.21094 0.788555 1.21094 1.75781V18.2422C1.21094 19.2114 1.99949 20 2.96875 20H17.0312C18.0005 20 18.7891 19.2114 18.7891 18.2422V1.75781C18.7891 0.788555 18.0005 0 17.0312 0ZM17.6172 18.2422C17.6172 18.5653 17.3543 18.8281 17.0312 18.8281H2.96875C2.64566 18.8281 2.38281 18.5653 2.38281 18.2422V1.75781C2.38281 1.43473 2.64566 1.17188 2.96875 1.17188H17.0312C17.3543 1.17188 17.6172 1.43473 17.6172 1.75781V18.2422Z"
      fill="#1D2E4A"
    />
<path
      d="M15.8594 2.34375H4.14062C3.81703 2.34375 3.55469 2.60609 3.55469 2.92969V7.69531C3.55469 8.01891 3.81703 8.28125 4.14062 8.28125H15.8594C16.183 8.28125 16.4453 8.01891 16.4453 7.69531V2.92969C16.4453 2.60609 16.183 2.34375 15.8594 2.34375ZM15.2734 7.10938H4.72656V3.51562H15.2734V7.10938Z"
      fill="#1D2E4A"
    />
<path
      d="M6.48438 9.45312H4.14062C3.81703 9.45312 3.55469 9.71547 3.55469 10.0391V12.3828C3.55469 12.7064 3.81703 12.9688 4.14062 12.9688H6.48438C6.80797 12.9688 7.07031 12.7064 7.07031 12.3828V10.0391C7.07031 9.71547 6.80797 9.45312 6.48438 9.45312ZM5.89844 11.7969H4.72656V10.625H5.89844V11.7969Z"
      fill="#1D2E4A"
    />
<path
      d="M6.48438 14.1406H4.14062C3.81703 14.1406 3.55469 14.403 3.55469 14.7266V17.0703C3.55469 17.3939 3.81703 17.6562 4.14062 17.6562H6.48438C6.80797 17.6562 7.07031 17.3939 7.07031 17.0703V14.7266C7.07031 14.403 6.80797 14.1406 6.48438 14.1406ZM5.89844 16.4844H4.72656V15.3125H5.89844V16.4844Z"
      fill="#1D2E4A"
    />
<path
      d="M11.1719 9.45312H8.82812C8.50453 9.45312 8.24219 9.71547 8.24219 10.0391V12.3828C8.24219 12.7064 8.50453 12.9688 8.82812 12.9688H11.1719C11.4955 12.9688 11.7578 12.7064 11.7578 12.3828V10.0391C11.7578 9.71547 11.4955 9.45312 11.1719 9.45312ZM10.5859 11.7969H9.41406V10.625H10.5859V11.7969Z"
      fill="#1D2E4A"
    />
<path
      d="M11.1719 14.1406H8.82812C8.50453 14.1406 8.24219 14.403 8.24219 14.7266V17.0703C8.24219 17.3939 8.50453 17.6562 8.82812 17.6562H11.1719C11.4955 17.6562 11.7578 17.3939 11.7578 17.0703V14.7266C11.7578 14.403 11.4955 14.1406 11.1719 14.1406ZM10.5859 16.4844H9.41406V15.3125H10.5859V16.4844Z"
      fill="#1D2E4A"
    />
<path
      d="M15.8594 9.45312H13.5156C13.192 9.45312 12.9297 9.71547 12.9297 10.0391V17.0703C12.9297 17.3939 13.192 17.6562 13.5156 17.6562H15.8594C16.183 17.6562 16.4453 17.3939 16.4453 17.0703V10.0391C16.4453 9.71547 16.183 9.45312 15.8594 9.45312ZM15.2734 16.4844H14.1016V10.625H15.2734V16.4844Z"
      fill="#1D2E4A"
    />
</symbol>

<symbol id="icon-date-picker">
<path
      d="M17.4754 2.0669H16.1634V1.74585C16.1634 1.42226 15.9011 1.15991 15.5775 1.15991C15.2539 1.15991 14.9916 1.42226 14.9916 1.74585V2.0669H13.3747V1.74585C13.3747 1.42226 13.1123 1.15991 12.7887 1.15991C12.4652 1.15991 12.2028 1.42226 12.2028 1.74585V2.0669H10.5859V1.74585C10.5859 1.42226 10.3236 1.15991 10 1.15991C9.67641 1.15991 9.41406 1.42226 9.41406 1.74585V2.0669H7.79719V1.74585C7.79719 1.42226 7.53484 1.15991 7.21125 1.15991C6.88766 1.15991 6.62531 1.42226 6.62531 1.74585V2.0669H5.00844V1.74585C5.00844 1.42226 4.74609 1.15991 4.4225 1.15991C4.09891 1.15991 3.83656 1.42226 3.83656 1.74585V2.0669H2.52461C1.13254 2.0669 0 3.19944 0 4.59147V16.3155C0 17.7076 1.13254 18.8401 2.52461 18.8401H17.4754C18.8675 18.8401 20 17.7075 20 16.3155V4.59147C20 3.19944 18.8675 2.0669 17.4754 2.0669ZM18.8281 16.3155C18.8281 17.0614 18.2213 17.6682 17.4754 17.6682H2.52461C1.77871 17.6682 1.17188 17.0614 1.17188 16.3155V6.73233H18.8281V16.3155ZM18.8281 5.56046H1.17188V4.59147C1.17188 3.84562 1.77871 3.23878 2.52461 3.23878H3.83656V3.4653C3.83656 3.7889 4.09891 4.05124 4.4225 4.05124C4.74609 4.05124 5.00844 3.7889 5.00844 3.4653V3.23878H6.62531V3.4653C6.62531 3.7889 6.88766 4.05124 7.21125 4.05124C7.53484 4.05124 7.79719 3.7889 7.79719 3.4653V3.23878H9.41406V3.4653C9.41406 3.7889 9.67641 4.05124 10 4.05124C10.3236 4.05124 10.5859 3.7889 10.5859 3.4653V3.23878H12.2028V3.4653C12.2028 3.7889 12.4652 4.05124 12.7887 4.05124C13.1123 4.05124 13.3747 3.7889 13.3747 3.4653V3.23878H14.9916V3.4653C14.9916 3.7889 15.2539 4.05124 15.5775 4.05124C15.9011 4.05124 16.1634 3.7889 16.1634 3.4653V3.23878H17.4754C18.2213 3.23878 18.8281 3.84562 18.8281 4.59147V5.56046Z"
      fill="#52555F"
    />
<path
      d="M6.53186 7.98157H4.21979C3.89619 7.98157 3.63385 8.24391 3.63385 8.5675V10.9596C3.63385 11.2832 3.89619 11.5456 4.21979 11.5456H6.53186C6.85545 11.5456 7.11779 11.2832 7.11779 10.9596V8.5675C7.11779 8.24391 6.85549 7.98157 6.53186 7.98157ZM5.94592 10.3737H4.80572V9.15344H5.94592V10.3737Z"
      fill="#52555F"
    />
<path
      d="M11.1561 7.98157H8.84399C8.5204 7.98157 8.25806 8.24391 8.25806 8.5675V10.9596C8.25806 11.2832 8.5204 11.5456 8.84399 11.5456H11.1561C11.4797 11.5456 11.742 11.2832 11.742 10.9596V8.5675C11.742 8.24391 11.4797 7.98157 11.1561 7.98157ZM10.5701 10.3737H9.42993V9.15344H10.5701V10.3737Z"
      fill="#52555F"
    />
<path
      d="M15.7802 7.98157H13.4681C13.1445 7.98157 12.8822 8.24391 12.8822 8.5675V10.9596C12.8822 11.2832 13.1445 11.5456 13.4681 11.5456H15.7802C16.1038 11.5456 16.3661 11.2832 16.3661 10.9596V8.5675C16.3661 8.24391 16.1038 7.98157 15.7802 7.98157ZM15.1943 10.3737H14.0541V9.15344H15.1943V10.3737Z"
      fill="#52555F"
    />
<path
      d="M6.53186 12.5258H4.21979C3.89619 12.5258 3.63385 12.7881 3.63385 13.1117V15.5038C3.63385 15.8274 3.89619 16.0898 4.21979 16.0898H6.53186C6.85545 16.0898 7.11779 15.8274 7.11779 15.5038V13.1117C7.11779 12.7881 6.85549 12.5258 6.53186 12.5258ZM5.94592 14.9179H4.80572V13.6977H5.94592V14.9179Z"
      fill="#52555F"
    />
<path
      d="M11.1561 12.5258H8.84399C8.5204 12.5258 8.25806 12.7881 8.25806 13.1117V15.5038C8.25806 15.8274 8.5204 16.0898 8.84399 16.0898H11.1561C11.4797 16.0898 11.742 15.8274 11.742 15.5038V13.1117C11.742 12.7881 11.4797 12.5258 11.1561 12.5258ZM10.5701 14.9179H9.42993V13.6977H10.5701V14.9179Z"
      fill="#52555F"
    />
<path
      d="M15.7802 12.5258H13.4681C13.1445 12.5258 12.8822 12.7881 12.8822 13.1117V15.5038C12.8822 15.8274 13.1445 16.0898 13.4681 16.0898H15.7802C16.1038 16.0898 16.3661 15.8274 16.3661 15.5038V13.1117C16.3661 12.7881 16.1038 12.5258 15.7802 12.5258ZM15.1943 14.9179H14.0541V13.6977H15.1943V14.9179Z"
      fill="#52555F"
    />
</symbol>

<symbol id="icon-delete">
<g clip-path="url(#clip0_14_573)">
<path
        d="M16.308 4.02333L15.9106 2.832C15.7592 2.37827 15.3361 2.07339 14.8579 2.07339H11.5177V0.985886C11.5177 0.442337 11.0758 0 10.5324 0H7.47348C6.93021 0 6.48815 0.442337 6.48815 0.985886V2.07339H3.14803C2.66971 2.07339 2.2466 2.37827 2.09526 2.832L1.69783 4.02333C1.60733 4.29456 1.6532 4.59489 1.82033 4.82684C1.98746 5.05879 2.25786 5.19736 2.54378 5.19736H2.9592L3.87354 16.5038C3.94152 17.3427 4.65343 18 5.49457 18H12.6968C13.5378 18 14.2499 17.3427 14.3177 16.5037L15.232 5.19736H15.4621C15.748 5.19736 16.0184 5.05879 16.1855 4.82698C16.3526 4.59503 16.3985 4.29456 16.308 4.02333ZM7.54284 1.05469H10.463V2.07339H7.54284V1.05469ZM13.2664 16.4187C13.2425 16.7141 12.9923 16.9453 12.6968 16.9453H5.49457C5.19904 16.9453 4.94883 16.7141 4.92493 16.4187L4.01732 5.19736H14.1739L13.2664 16.4187ZM2.76996 4.14267L3.09584 3.16571C3.10326 3.14319 3.12427 3.12808 3.14803 3.12808H14.8579C14.8817 3.12808 14.9026 3.14319 14.9101 3.16571L15.236 4.14267H2.76996Z"
        fill="#52555F"
      />
<path
        d="M11.5845 16.3811C11.5938 16.3816 11.6031 16.3818 11.6124 16.3818C11.891 16.3818 12.1239 16.1634 12.1385 15.8819L12.6337 6.37568C12.6488 6.08482 12.4252 5.83667 12.1345 5.82156C11.843 5.80604 11.5956 6.02989 11.5804 6.32075L11.0853 15.827C11.0702 16.1178 11.2936 16.366 11.5845 16.3811Z"
        fill="#52555F"
      />
<path
        d="M5.89105 15.8835C5.90643 16.1646 6.13906 16.3821 6.41715 16.3821C6.42677 16.3821 6.43665 16.3819 6.4464 16.3813C6.73713 16.3655 6.96001 16.117 6.94422 15.8261L6.42553 6.31991C6.40974 6.02905 6.16117 5.80616 5.87031 5.82209C5.57959 5.83789 5.3567 6.08645 5.37249 6.37731L5.89105 15.8835Z"
        fill="#52555F"
      />
<path
        d="M9.00891 16.3822C9.30019 16.3822 9.53625 16.1461 9.53625 15.8548V6.34863C9.53625 6.05736 9.30019 5.82129 9.00891 5.82129C8.71764 5.82129 8.48157 6.05736 8.48157 6.34863V15.8548C8.48157 16.1461 8.71764 16.3822 9.00891 16.3822Z"
        fill="#52555F"
      />
</g>
<defs>
<clipPath id="clip0_14_573">
<rect width="18" height="18" fill="white" />
</clipPath>
</defs>
</symbol>

<symbol id="icon-cabbage">
<path
      d="M41.653 89c-3.974 0-7.874-.86-11.67-2.58a72.882 72.882 0 0 1-12.5-7.237 5.526 5.526 0 0 1-.485-.393l-4.211 3.39a.886.886 0 0 1-1.022.066c-.145-.09-3.609-2.23-6.54-5.653-2.943-3.436-4.232-6.81-4.286-6.95a.89.89 0 0 1 .166-.904l2.588-2.929a.894.894 0 0 1 .213-.176c-1.323-2.576-3.1-7.37-3.74-15.263C-.4 43.38.484 37.65 2.794 33.335c.123-.231.306-.609.504-1.017.339-.699.688-1.422.93-1.817.238-.389.496-.837.783-1.334 2.228-3.856 6.375-11.034 15.849-16.503 8.03-4.636 12.025-5.118 15.55-5.543 2.096-.253 3.906-.472 6.343-1.563 6.2-2.776 7.438-5.047 7.45-5.07a.91.91 0 0 1 .58-.46.89.89 0 0 1 .722.124c.65.45 3.892 2.806 3.927 5.084.018 1.104-.365 1.86-.645 2.41-.286.567-.276.58-.155.741.13.173.366.268.741.41.896.336 2.248.845 2.31 3.46.051 2.083-1.047 3.246-1.941 4.09 1.767.881 6.298 3.288 9.892 6.44 2.321 2.038 4.142 4.419 5.261 6.056.854 1.25 1.368 2.075 1.662 2.639 1.145-.621 1.924-.888 2.528-1.095.71-.243 1.102-.378 1.716-.948 2.043-1.896 5.382-.405 5.786-.126a.955.955 0 0 1 .406.68c.056.51-.235.826-.764 1.399-.88.952-2.709 2.934-3.588 6.297-.787 3.014-.623 6.516-.478 9.605.092 1.95.178 3.793.003 5.25-.574 4.76-1.769 14.666-9.07 22.81-3.493 3.894-7.875 7.295-12.407 9.68a.89.89 0 0 1-.26.136 37.282 37.282 0 0 1-3.368 1.539C49.209 88.237 45.398 89 41.653 89Zm-4.882-2.28c6.642 1.245 13.11-.247 18.747-3.099.39-.796 1.521-3.46 1.437-7.488-.099-4.747-.92-6.247-.93-6.26a.9.9 0 0 1 .313-1.213.88.88 0 0 1 1.204.281c.11.176 1.08 1.87 1.191 7.154.054 2.622-.356 4.719-.801 6.194a43.16 43.16 0 0 0 9.84-8.124 29.977 29.977 0 0 0 3.49-4.772c-.326-.796-1.059-3.097-.66-6.96.462-4.498.633-6.951.634-6.975a.897.897 0 0 1 .948-.827c.49.033.86.458.826.949-.002.025-.174 2.503-.64 7.037-.204 1.981-.081 3.485.105 4.52 2.843-5.819 3.534-11.558 3.926-14.807.157-1.308.075-3.078-.013-4.951-.151-3.218-.322-6.864.534-10.14.915-3.502 2.718-5.648 3.76-6.79-.829-.216-1.997-.33-2.672.297-.891.827-1.567 1.058-2.348 1.326-.74.253-1.659.568-3.259 1.558-1.476.914-1.512 2.112-1.447 3.992.044 1.244.092 2.653-.633 3.9-1.269 2.178-2.813 1.677-3.835 1.348-.553-.179-1.034-.335-1.535-.218-.047.384.281 1.462.525 2.264.561 1.84 1.329 4.362.913 6.907-.232 1.422-.658 2.291-1.34 2.737-.797.52-1.644.303-2.325.127-.895-.231-1.069-.21-1.326.163-.984 1.425-1.258 2.726-1.639 4.527-.16.758-.343 1.619-.601 2.586-.404 1.512-1.18 2.569-2.306 3.142-1.712.871-4.177.632-7.755-.755a21.742 21.742 0 0 0-7.535-1.456h-.028c-.772 0-1.47.361-2.237.926-5.132 4.925-10.784 7.704-16.354 7.956-1.076.049-2.21.008-3.358-.097-1.251.314-2.005 1.283-2.313 2.208-.382 1.152-.256 2.768 1.248 3.85A71.065 71.065 0 0 0 30.716 84.8a26.978 26.978 0 0 0 3.87 1.411c.568-.429 3.195-2.515 5.617-6.113-.187-.425-1.28-2.994-1.413-5.27-.066-1.135-.104-2.594.086-3.102l1.664.627s.011-.02.024-.074c-.005.02-.111.524.001 2.445.07 1.195.47 2.54.806 3.482 2.703-4.69 3.1-6.361 3.104-6.378a.894.894 0 0 1 1.054-.678.885.885 0 0 1 .686 1.041c-.04.194-.47 2.042-3.525 7.286-2.071 3.557-4.48 5.979-5.919 7.243ZM2.808 69.5a25.248 25.248 0 0 0 3.767 5.934c2.1 2.453 4.553 4.242 5.602 4.954l3.327-2.679c-1.218-.936-3.174-2.459-4.422-3.533-3.299-2.836-5.675-6.102-5.775-6.24a.926.926 0 0 1-.1-.177 10.731 10.731 0 0 1-.382-.542l-2.017 2.282Zm5.915-.184c.937 1.064 2.151 2.335 3.517 3.51.836.719 2.025 1.666 3.079 2.488a5.311 5.311 0 0 1 .268-1.99 5.228 5.228 0 0 1 1.214-2.012c-3.064-.514-6.007-1.34-8.078-1.996Zm-2.057-2.58c1.217.445 7.27 2.581 12.838 3.143a5.462 5.462 0 0 1 1.076-.086c1.718.031 3.36-.09 4.877-.368 5.575-1.02 9.207-4.075 11.378-5.9.382-.323.725-.61 1.03-.85l.293-.226a43.902 43.902 0 0 0 4.453-5.056c5.64-7.444 5.29-11.004 5.122-12.715l-.024-.248c-.04-.443-.288-1.244-.55-2.092-.684-2.205-1.618-5.224-.735-7.452.815-2.057 2.891-2.242 4.899-2.42 1.44-.129 2.929-.262 4.09-1.032 2.487-1.652 1.233-5.901.1-8.151-.447-.89-.998-1.558-1.485-2.148-.835-1.01-1.697-2.056-1.302-3.633.252-1.007.949-1.657 1.622-2.287.855-.798 1.593-1.488 1.559-2.915-.034-1.414-.434-1.564-1.159-1.836-.486-.183-1.09-.41-1.537-1.007-.797-1.06-.342-1.959-.01-2.615.239-.47.464-.914.453-1.578-.012-.833-1.3-2.184-2.46-3.122-.904 1.06-3.016 2.938-7.715 5.042-2.682 1.2-4.71 1.445-6.856 1.704-3.356.405-7.16.864-14.875 5.318-9.062 5.232-12.903 11.88-15.197 15.853-.295.51-.562.971-.806 1.372-.196.32-.557 1.065-.846 1.664-.211.434-.406.836-.537 1.082-1.99 3.714-2.835 8.625-2.519 14.613 1.331-4.486 4.05-11.157 9.429-17.357 9.018-10.392 26.538-16.063 27.28-16.3a.89.89 0 0 1 .54 1.697c-.169.054-16.096 5.21-25.13 14.322 1.75.577 5.816 1.733 8.644 1.086 1.162-.266 2.167-.518 3.054-.741 2.194-.552 3.78-.95 5.645-1.023l.035-.001a.89.89 0 0 1 .034 1.78c-1.601.062-3.046.41-4.984.896l1.732 1.664a.889.889 0 1 1-1.23 1.285l-2.542-2.442c-.425.103-.874.21-1.35.318-3.868.882-9.316-1.01-10.365-1.397l-.021.024c-2.887 3.327-4.98 6.828-6.489 10.023 2.37-1.291 6.24-2.958 8.703-1.726 1.636.817 2.88 2.287 4.085 3.71 1.317 1.554 2.56 3.022 4.19 3.574a.89.89 0 0 1-.571 1.686c-2.096-.71-3.56-2.438-4.975-4.11-.514-.607-1.015-1.199-1.531-1.726-.373 1.156-.995 3.344-1.015 5.13-.028 2.543 1.24 6.144 1.252 6.18a.888.888 0 1 1-1.675.597c-.057-.158-1.388-3.934-1.356-6.797.028-2.513 1.048-5.546 1.334-6.346a5.512 5.512 0 0 0-.531-.305c-2.22-1.107-7.315 1.734-8.925 2.817a.877.877 0 0 1-.191.098c-2.008 5.066-2.496 8.822-2.504 8.888l-.004.025C3.637 62.376 6.09 65.98 6.666 66.735Zm35.206-5.618a23.57 23.57 0 0 1 7.868 1.571c2.99 1.159 5.113 1.437 6.308.828.666-.339 1.122-.998 1.395-2.015.246-.921.415-1.72.578-2.494.392-1.851.73-3.45 1.916-5.17 1.002-1.451 2.398-1.09 3.232-.875.361.092.77.198.91.106.057-.038.354-.288.558-1.534.349-2.135-.321-4.334-.86-6.1-.499-1.64-.86-2.824-.367-3.708.152-.272.456-.63 1.044-.785 1.023-.27 1.887.01 2.58.234.973.313 1.205.39 1.754-.552.466-.801.43-1.84.392-2.94-.059-1.692-.131-3.772 1.843-5.264-.646-1.171-2.996-5.165-6.561-8.293-3.752-3.292-8.732-5.808-9.94-6.396-.03.066-.054.134-.072.204-.162.648.1 1.036.949 2.066.52.629 1.166 1.413 1.703 2.48 1.734 3.446 2.59 8.247-.706 10.436-1.537 1.02-3.331 1.18-4.915 1.322-1.912.17-3.012.315-3.404 1.304-.652 1.644.175 4.316.78 6.268.304.981.566 1.829.623 2.459l.022.233c.191 1.937.588 5.966-5.474 13.966a49.072 49.072 0 0 1-2.156 2.65Z"
    />
</symbol>

<symbol id="icon-ellipse">
<ellipse cx="33.5" cy="7" rx="33.5" ry="7"/>
</symbol>

</svg>
